<svg xmlns="http://www.w3.org/2000/svg" viewBox="0 0 44 35"><path fill="#4a4b4a" d="M0 34.3h44v.7H0z"/><path d="M26.3 5.8c1.6 0 2.9-1.3 2.9-2.9 0-1.6-1.3-2.9-2.9-2.9-1.6 0-2.9 1.3-2.9 2.9 0 1.6 1.3 2.9 2.9 2.9zm5.2.4c-1.7 2.3-3.9 2.6-6.3 1.2-.2-.1-.9-.5-1-.6-3.9-2.3-7.7-1.4-10.3 2.2-1.1 1.5 1.5 3 2.5 1.5 1.4-1.9 3-2.4 4.9-1.8-.9 1.7-1.8 3.3-2.9 5.6-1.2 2.3-3.7 4.2-6.2 2.8-1.8-1.1-3.4 1.5-1.6 2.6 3.4 2 7.4.8 9.4-1.8.1 0 .2.1.2.1 1.7.6 3.9 2.1 4.5 2.7.7.5 1.8 3.3 2.4 4.7.9 1.7 3.5.5 2.7-1.3-.8-1.6-2.1-4.7-3-5.5-.8-.6-2.4-1.8-3.7-2.5.9-1.7 1.8-3.4 2.8-5.1 3.1.9 6.1-.2 8.2-3.2 1-1.7-1.5-3.1-2.6-1.6z" fill-rule="evenodd" clip-rule="evenodd" fill="#4a4b4a"/></svg>