<svg xmlns="http://www.w3.org/2000/svg" viewBox="0 0 44 35"><path d="M0 34.3h44v.7H0zm18.5-13c-.8.9-1.7 1.5-3 1.5-.7 0-1.3-.2-1.9-.4l-6.9-2.1c-1.1-.3-2.2.4-2.4 1.6 0 .5-.1.9-.1 1.4-.1 1.1.6 2 1.6 2.2 1.6.3 3.1.5 4.7.7 1.4.2 2.7.4 4.1.6 1.1.2 2.1-.1 2.9-1 1.3-1.4 3.3-3.8 4.6-5.3-.5-.7-.9-1.6-1.1-2.5-.6 1.2-1.7 2.4-2.5 3.3zM39.7.9c-.8-.3-1.5-.6-2.3-.9-.1 0-.2 0-.2.1-.4.4-6.4 7.2-7.2 8.1 1 .1 1.9.4 2.7.8 2.9-3.3 4-4.7 7-8.1zm-8.8 8.3c-3.9-1-7.9 1.3-8.9 5.1-1 3.9 1.2 7.8 5.1 8.9 3.8 1.1 7.9-1.2 8.9-5.1 1.1-3.8-1.2-7.8-5.1-8.9z" fill="#4a4b4a"/></svg>