<svg version="1.1" id="Layer_1" xmlns="http://www.w3.org/2000/svg" x="0" y="0" viewBox="0 0 44 35" xml:space="preserve"><style>.st0{fill:#4a4b4a}</style><path class="st0" d="M0 34.3h44v.7H0zM28.2 1.5C23.3-1.1 17.5-.1 14.1 2.6c.7 0 1.3-.1 2-.1 3.1-.1 6 .3 8.8 1.8.1.1.2.1.4 0 .6-.5 1.1-.9 1.7-1.4.4-.5.8-1 1.2-1.4zM34 7.3c-.8-1.5-1.8-2.8-3.1-3.9-.6-.5-1.3-1-1.9-1.5-.8 1.1-1.7 1.9-2.6 2.7-2.5 2.1-5.2 4-8.1 5.7-.2.1-.2.2-.2.4-.1 1.6.1 3.1.5 4.6.3 1.2.8 2.4 1.5 3.5.3-.2.7-.3 1-.5 3.8-2.1 7.3-4.7 10.5-7.7.9-.9 1.7-1.8 2.5-2.8 0-.2 0-.4-.1-.5zM12.8 3.8c-.1 0-.3.1-.4.2-.6.6-1.1 1.3-1.6 2s-.9 1.5-1.3 2.3c.8-.2 1.5-.3 2.2-.4 2.1-.1 4 .4 5.8 1.5.2.1.3.1.4 0 1.7-1.1 3.3-2.2 5-3.4.5-.3.9-.7 1.4-1-.1 0-.2-.1-.3-.1-1.6-.8-3.4-1.2-5.2-1.3-2-.2-4-.2-6 .2z"/><path class="st0" d="M34.9 16.8l.3-.6c.5-2.1.4-4.3-.2-6.4-.1-.4-.3-.8-.4-1.2-3.9 4.7-8.6 8.2-13.9 11 0 .1.1.1.1.2.8 1.2 1.8 2.2 2.9 3.2.2.1.3.2.5.1 2.6-.9 5.1-2.1 7.4-3.6 1.2-.8 2.4-1.6 3.3-2.7zM8.6 15.3c.7 4.7 3.3 8.2 7.5 10.3.2.1.5.2.7.3-4.9-4.5-7.1-10.1-7-16.7-.1.1-.2.2-.4.3-.3.1-.4.3-.5.5-.4 1.8-.6 3.5-.3 5.3zm19.2 10.2c.2.1.3.1.4 0 2.4-1.2 4.2-3 5.5-5.3.3-.5.5-1 .8-1.5-2.9 2.3-6.2 3.9-9.6 5.2v.1c1 .5 1.9 1 2.9 1.5z"/><path class="st0" d="M19.2 26.4c.1 0 .1.1.2.2s.1.2.2.2c2.4.4 4.7.2 7-.6.1 0 .1-.1.2-.1-.6-.4-1.3-.7-1.9-1.1-5.2-3.4-7.9-8.2-7.7-14.4 0-.2-.1-.3-.2-.4-1.2-.8-2.6-1.3-4.1-1.3h-2v.3c-.1 1.5 0 3.1.3 4.6 1 5.3 3.5 9.6 8 12.6z"/></svg>