<svg version="1.1" id="Layer_1" xmlns="http://www.w3.org/2000/svg" x="0" y="0" viewBox="0 0 44 35" xml:space="preserve"><style>.st0{fill:#4a4b4a}</style><path class="st0" d="M0 34.3h44v.7H0z"/><path d="M14.7 14c-3.4 0-6.2 2.8-6.2 6.2 0 3.4 2.8 6.2 6.2 6.2 3.3 0 6.1-2.8 6.1-6.2 0-3.4-2.8-6.2-6.1-6.2zm-1.1 3.7c-.3 0-.6-.2-.6-.6 0-.3.2-.6.6-.6.3 0 .6.2.6.6-.1.4-.3.6-.6.6zm1.1 2.2c-.3 0-.6-.2-.6-.6s.2-.6.6-.6c.3 0 .6.2.6.6s-.3.6-.6.6zm1.1-2.2c-.3 0-.5-.2-.5-.6 0-.3.2-.6.5-.6s.6.2.6.6c-.1.4-.3.6-.6.6z" fill-rule="evenodd" clip-rule="evenodd" fill="#4a4b4a"/><path class="st0" d="M34.8 22.9c.3-1.4.7-2.9.7-3.4 0-1.7-.8-3.3-1.6-4.9-.6-1.3-1.3-2.7-1.5-4.3-.1-.9.1-2.4.2-3.6.1-.8.2-1.5.2-1.9 0-1.5-1.2-2.8-2.7-2.8-1.5 0-2.8 1.2-2.8 2.7 0 .5.1 1.2.2 1.9.2 1.2.3 2.7.2 3.6-.3 1.6-1 2.9-1.7 4.2-.8 1.5-1.6 3.1-1.6 4.8 0 .5.3 2.1.6 3.6h9.8zm-9.6.7c.3 1.3.5 2.3.6 2.3.2.6.8 1 1.4 1l5.3.1c.6 0 1.2-.4 1.5-1 0 0 .3-1.1.6-2.4h-9.4z"/><path class="st0" d="M21.5 20.2v.7h2.6c-.2-.9-.3-1.5-.3-1.5 0-1.9.9-3.6 1.7-5.1l.1-.1c.4-.8.8-1.6 1.1-2.5-.5-1-.9-2.1-1.1-3.3-.1-.9.1-2.4.2-3.6.2-.8.3-1.5.3-2 0-1.5-1.2-2.8-2.7-2.8-1.5 0-2.8 1.2-2.8 2.7 0 .5.1 1.2.2 1.9.2 1.3.3 2.8.2 3.6-.3 1.6-1 2.9-1.7 4.2-.3.7-.7 1.3-1 2 1.9 1.3 3.2 3.4 3.2 5.8zm-.2 1.3c-.3 1.2-.8 2.3-1.6 3.1.2.1.5.2.8.2l4.4.1c-.2-1-.5-2.3-.7-3.4h-2.9z"/></svg>