<svg xmlns="http://www.w3.org/2000/svg" viewBox="0 0 44 35"><path d="M0 34.3h44v.7H0zM18.1 23c.2.7.3 1.5.5 2.2.2 1.1.8 1.6 1.8 1.6 2.3.1 4.6.2 6.9.2.7 0 1.4-.2 2-.3.6-.1 1-.4 1.1-1.1.2-1.2.3-2.4.5-3.5-4.3 1.2-8.5 1.4-12.8.9zm-7.2-11c.4 2.1 1.3 4 2.5 5.8 1.6 2.5 3.9 3.9 6.9 4.2 2.5.2 4.9.1 7.3-.3 2.9-.5 3.3-.4 4.3-3.8 1.2-4.2 1.5-8.5 1.2-12.9-.2-2.5-1.4-3.8-3.8-4.3C26 0 22.7 0 19.4.6c-2 .4-3.5 1.5-3.9 3.6-.1.6-.2 1.3-.2 1.9 0 2.9.4 5.8 1.1 8.7.1.5.1.8-.4 1-.4.1-.7-.1-.8-.6-.1-.4-.2-.8-.3-1.3L14 8.5c-1-.2-1.8.1-2.5.9-.6.7-.8 1.6-.6 2.6z" fill="#4a4b4a"/></svg>