<svg xmlns="http://www.w3.org/2000/svg" viewBox="0 0 44 35"><path d="M0 34.3h44v.7H0zm30.4-18.2c-2.9 0-5.2 2.4-5.2 5.3s2.3 5.2 5.2 5.2c2.9 0 5.3-2.3 5.3-5.2 0-2.9-2.4-5.3-5.3-5.3zM21.1 2.2c0-.2.1-.4.2-.4h2.4c.2 0 .2.2.2.4v4.4l-2.9 3V2.2zm-4.3-.4h2.4c.1 0 .2.2.2.4v8.9l-3 3V2.2c0-.2.2-.4.4-.4zm-4.9.4c0-.2.2-.4.2-.4h2.4c.2 0 .2.2.2.4v16.2l-2.9 2.9V2.2zm-.6 24.6c0 .2-.2.2-.5.2-.2 0-.3 0-.4-.2l-2-1.9c-.1-.2-.2-.3-.2-.5s.1-.3.2-.4c.2-.2.3-.2.5-.2s.3.1.5.2l1.9 1.9c.2.1.2.2.2.5 0 .2 0 .4-.2.4zM35.1 4.4L20.6 18.8c-.3.3-.8.3-1.2 0l-.6-.6c-.1 0-.2-.1-.2-.1-.1 0-.2.1-.2.1l-7.1 7.2L10 24c.3-.4 5.4-5.4 7.1-7.2.2-.1.2-.2 0-.3l-.6-.6c-.3-.3-.3-.9 0-1.2L31 .2c.3-.3.8-.3 1.2 0l3 2.9c.2.2.2.4.2.7 0 .2-.1.4-.3.6z" fill="#4a4b4a"/></svg>