<svg version="1.1" id="Layer_1" xmlns="http://www.w3.org/2000/svg" x="0" y="0" viewBox="0 0 44 35" xml:space="preserve"><style>.st0{fill:#4a4b4a}</style><path class="st0" d="M0 34.3h44v.7H0zm30.8-21.9c-.5.6-1 1.1-1.4 1.6-1.9 2.1-3.8 4.3-5.7 6.4-.1.1-.1.2-.2.2-.3.3-.7.3-.9 0-.3-.2-.3-.6-.1-.9.2-.2.4-.5.6-.7 1.9-2.2 3.8-4.3 5.7-6.5.1-.1.2-.2.3-.4-.4 0-.6 0-.9.1-.8 0-1.2-.2-1.4-.9-.4-1-.7-1.9-1.1-2.9 0-.1-.1-.2-.2-.4-1.6 1.1-3.2 2.2-4.8 3.4.2.1.3.2.4.3 1.1.7 2.1 1.4 3.2 2.1.7.5.8 1 .3 1.7-1.3 1.9-2.6 3.7-4 5.6-.2.2-.5.4-.8.6-.5.2-1 0-1.3-.4-.3-.4-.3-.8 0-1.3 1-1.4 1.9-2.8 2.9-4.3.1-.1.1-.2.2-.3-1.1-.7-2.1-1.3-3.1-1.9-.9-.6-1.6-1.2-2.1-2.2-.4-.9-.3-1.7.4-2.4.3-.3.6-.6.9-.8 1.7-1.2 3.4-2.4 5.1-3.7.5-.4 1.1-.7 1.8-.8.6-.1 1.1.2 1.5.6.8.8 1.4 1.7 1.7 2.8.3 1 .7 1.9 1 2.9.1.2.2.3.4.3.8 0 1.6-.1 2.4-.1.2 0 .3 0 .5.1.5.1.7.4.7.8 0 .5-.1.7-.6.9 0 0-.1 0-.2.1.1.5.3 1 .4 1.5.3 0 .6 0 .9-.1 3.9-.2 7.3 3.1 7 7.3-.2 3.2-2.9 5.9-6.1 6.2-3.7.3-6.7-2-7.4-5.7-.5-2.9 1.1-5.9 3.8-7.2.3-.1.4-.3.3-.6.1-.3 0-.6-.1-1zm.8 2.7c-2.3.8-4.1 3.7-3.1 6.8 1.1 3 4.4 4.5 7.3 3.3 2.9-1.2 4.2-4.6 2.9-7.5-1.3-2.7-4.3-3.5-5.8-3v.1c.5 1.6.9 3.3 1.4 4.9.1.3.1.6-.2.8-.4.4-1 .2-1.2-.4-.3-.9-.5-1.8-.8-2.7 0-.6-.2-1.4-.5-2.3z"/><path class="st0" d="M14.1 14.6c0-.1.1-.1.1-.2.6-.7 1.1-1.4 1.8-2.1h-.9c-.7 0-1.1-.3-1.1-.9 0-.6.4-.9 1.1-.9h.3c.2 1.1.8 2 1.7 2.7-.6.8-1.3 1.5-1.9 2.3 1 1.1 1.7 2.5 1.8 4h1.1c-.4.5-.4 1.2-1.1 1.6-.4 2.3-1.6 4.2-3.8 5.2-1.8.9-3.6.9-5.5.2-3.6-1.4-5.2-5.7-3.6-9.2 1.6-3.5 6.2-5.2 10-2.7zm-.9 1c-1.5-1.1-4.1-1.4-6.1 0-2.1 1.5-2.9 4.2-2 6.6.9 2.4 3.4 3.8 6 3.4 2.4-.3 4.4-2.4 4.6-4.7h-5.1c-.4 0-.8 0-1-.4-.2-.4 0-.7.3-1 .9-1.1 1.9-2.2 2.8-3.4.2-.1.3-.3.5-.5zm1.1.8c-.9 1-1.7 2-2.5 3h3.9c-.2-1.1-.6-2.1-1.4-3zM32 2.5C32 3.9 30.9 5 29.5 5S27 3.9 27 2.5 28.1 0 29.5 0 32 1.1 32 2.5zm-.4 7h-.8c-.4 0-.6-.3-.6-.7 0-.4.3-.7.6-.7h1.6c.4 0 .6.3.6.7 0 .4-.3.7-.6.7h-.8z"/></svg>