<svg xmlns="http://www.w3.org/2000/svg" viewBox="0 0 44 35"><path fill="#4a4b4a" d="M0 34.3h44v.7H0z"/><path d="M34.8 2.2l-.5.4m-3.2 4.8l-1.6-.2-7.9 7.9c-.4.3-1.4.9-1.8.6-.4-.3.2-1.5.6-1.8L28.3 6l-.2-1.6L32.6 0l.6 2.4 1.1.3 1.3.3-4.5 4.4zm-10.5 4.2h.2l2.3-2.3v-.1c-.8-.4-1.6-.6-2.5-.6-3.3 0-6 2.7-6 6s2.7 6 6 6 6-2.7 6-6c0-.9-.2-1.8-.6-2.5l-2.3 2.3v.2c0 1.8-1.4 3.2-3.1 3.2-1.8 0-3.2-1.4-3.2-3.2 0-1.5 1.4-3 3.2-3zm0 15.4c6.7 0 12.2-5.4 12.2-12.2 0-2.1-.5-4-1.4-5.7h-.5L29.3 9l-1.1 1.1c.8 1.4 1.3 3 1.3 4.7 0 5-4 9-9 9s-9-4-9-9 4-9 9-9c1.7 0 3.3.5 4.7 1.3l1-1-.1-1.8v-.4c-1.7-.9-3.6-1.4-5.6-1.4C13.7 2.5 8.3 8 8.3 14.7 8.4 21.6 13.8 27 20.6 27zm13-23.1l-2.7 2.7v.1-.1l-.1-.1v-.1l2.7-2.7v-.1.1l.1.1v.1zm-1.7-1.5l-2.6 2.7-.2-.1 2.6-2.7h.1l.1.1zm.8.7l-2.6 2.7-.1-.1L32.6 3h.1v.1z" fill-rule="evenodd" clip-rule="evenodd" fill="#4a4b4a"/></svg>