<svg xmlns="http://www.w3.org/2000/svg" viewBox="0 0 44 35"><path fill="#4a4b4a" d="M0 34.3h44v.7H0z"/><path d="M33.1 11.6H22.2c.3-2.4 4.6-2 6.4-2.3 1.5-.2 2.9-.9 4.1-1.7C35 6 35.8 3.3 35.5.7c-.1-.9-1.6-1-1.5 0 .8 5.3-3.8 7.1-8.3 7.6-2.5.2-4.8.6-5 3.3h-9.8c-4.2 0-7.7 3.4-7.7 7.7 0 4.3 3.5 7.7 7.7 7.7 2.2 0 4.2-.9 5.6-2.4h10.9c1.4 1.5 3.4 2.4 5.7 2.4 4.2 0 7.7-3.4 7.7-7.7-.1-4.3-3.5-7.7-7.7-7.7zm-18.2 8.6c0 .5-.3.8-.8.8h-1.9v1.9c0 .5-.4.8-.8.8H9.8c-.5 0-.8-.3-.8-.8V21H7.1c-.4 0-.8-.4-.8-.8v-1.6c0-.5.3-.8.8-.8H9v-1.9c0-.5.3-.8.8-.8h1.6c.5 0 .8.3.8.8v1.9h1.9c.5 0 .8.3.8.8v1.6zm17.2.4c-.6 0-1.1-.5-1.1-1.2 0-.6.5-1.2 1.1-1.2.6 0 1.2.5 1.2 1.2-.1.7-.6 1.2-1.2 1.2zm2.3 2.3c-.6 0-1.2-.5-1.2-1.1 0-.6.5-1.2 1.2-1.2.6 0 1.2.5 1.2 1.2 0 .6-.5 1.1-1.2 1.1zm0-4.7c-.6 0-1.2-.5-1.2-1.1 0-.6.5-1.2 1.2-1.2.6 0 1.2.5 1.2 1.2 0 .6-.5 1.1-1.2 1.1zm2.4 2.4c-.6 0-1.1-.5-1.1-1.2 0-.6.5-1.2 1.1-1.2.6 0 1.2.5 1.2 1.2-.1.7-.6 1.2-1.2 1.2z" fill-rule="evenodd" clip-rule="evenodd" fill="#4a4b4a"/></svg>