<svg xmlns="http://www.w3.org/2000/svg" viewBox="0 0 44 35"><path d="M0 34.3h44v.7H0zm18.5-13c-.8.9-1.7 1.5-3 1.5-.7 0-1.3-.2-1.9-.4l-6.9-2.1c-1.1-.3-2.2.4-2.4 1.6 0 .5-.1.9-.1 1.4-.1 1.1.6 2 1.6 2.2 1.6.3 3.1.5 4.7.7 1.4.2 2.7.4 4.1.6 1.1.2 2.1-.1 2.9-1 1.3-1.4 3.3-3.8 4.6-5.3-.5-.7-.9-1.6-1.1-2.5-.6 1.2-1.7 2.4-2.5 3.3zM39.7.9c-.8-.3-1.5-.6-2.3-.9-.1 0-.2 0-.2.1-.4.4-6.4 7.2-7.2 8.1 1 .1 1.9.4 2.7.8 2.9-3.3 4-4.7 7-8.1zm-8.8 8.3c-3.9-1-7.9 1.3-8.9 5.1-1 3.9 1.2 7.8 5.1 8.9 3.8 1.1 7.9-1.2 8.9-5.1 1.1-3.8-1.2-7.8-5.1-8.9zm-7.4 5.7v.2c-.1.4-.4.7-.6.7-.2-.1-.3-.5-.2-1 .1-.5.4-.9.6-.8.2-.1.3.4.2.9zm2.7 5.1c-.1.3-.4.4-.6.3-.3-.2-.7-.5-.9-.9-.3-.4 0-.7.4-.8.6 0 1.2.8 1.1 1.4zm1.5-8.1c-.1.5-.7.9-1.2.8-.4 0-.6-.3-.5-.7.1-.6.8-.9 1.4-.8.4.1.4.4.3.7zm.9 5.1c.1-.5.8-.9 1.3-.7.5.2.8.7.7 1.2-.1.5-.8.8-1.3.7-.5-.2-.8-.7-.7-1.2zm2.5 4.8l-1.2.3c-.4 0-.5-.3-.3-.7.3-.4.9-.6 1.5-.4.1.1.3.2.3.3-.1.2-.2.5-.3.5zm1-8.1c-.2.2-.3.3-.5.3-.3 0-.6 0-.8-.2-.5-.3-.7-.9-.5-1.3.2-.3.5-.4 1-.3.6.3 1 .9.8 1.5zm.4-3.2c-.1.2-.5.1-.8-.1-.3-.2-.5-.4-.5-.6v-.1c.1-.2.5-.1.8.1.4.3.6.5.5.7zm2.3 4c.1 0 .3.2.4.3.2.3.3.7.1 1-.2.3-.5.4-.7 0-.1-.3-.2-.6-.2-.9-.1-.2.2-.4.4-.4zm.3 5.6c-.2.2-.3.3-.5.4v.1h-.3c-.2-.1-.1-.5.2-.9.3-.4.7-.6.8-.4.2 0 .1.4-.2.8z" fill="#4a4b4a"/></svg>