<svg xmlns="http://www.w3.org/2000/svg" viewBox="0 0 44 35"><path d="M0 34.3h44v.7H0zM34.7 8.8C32.5 2.9 27 0 22.5 0v5.2c0 .2.1.4.2.5 2.1 1.5 4.3 3.1 6.4 4.6.2.1.3.2.6.1 1.6-.5 3.1-1 4.7-1.5.1-.1.2-.1.3-.1zm-4.3 15.3c2.3-1.9 3.9-4.3 4.7-7.1.6-2.4.6-4.8-.1-7.1h-.1c-1.7.5-3.4 1.1-5 1.6-.1 0-.2.2-.2.3-.8 2.6-1.7 5.1-2.5 7.7v.3c1 1.4 2.1 2.8 3.2 4.3zM22 6.4c-2.2 1.6-4.5 3.2-6.7 4.8v.1c.8 2.5 1.6 5 2.5 7.6.1.2.2.2.4.2h7.7c.3 0 .3-.1.4-.3.6-1.8 1.2-3.6 1.7-5.3.2-.7.5-1.5.7-2.2C26.4 9.7 24.2 8 22 6.4zm-7.5 18.3c4.4 3 10.6 3.1 15.1 0 0-.1-.1-.1-.1-.1-1-1.4-2-2.8-3.1-4.2-.1-.1-.3-.2-.4-.2h-7.9c-.2 0-.3.1-.5.2-1 1.4-2 2.7-2.9 4.1l-.2.2zM9.3 8.8c.1 0 .2.1.3.1 1.6.5 3.1 1 4.7 1.5.2.1.4 0 .6-.1 2.1-1.5 4.2-3.1 6.3-4.6.2-.1.3-.3.3-.5V0c-1.7-.1-4.7.6-7.1 2.3-2.4 1.6-4.1 3.8-5.1 6.5zm-.3 1c-1.5 4.7 0 10.7 4.6 14.3l.1-.1 3-4.2c.1-.1.1-.3.1-.4l-2.4-7.5c-.1-.2-.2-.3-.4-.4-1.2-.4-2.5-.8-3.7-1.2-.5-.2-.9-.4-1.3-.5z" fill="#4a4b4a"/></svg>