<svg version="1.1" id="Layer_1" xmlns="http://www.w3.org/2000/svg" x="0" y="0" viewBox="0 0 44 35" xml:space="preserve"><style>.st0{fill:#4a4b4a}</style><path class="st0" d="M0 34.3h44v.7H0zm35.7-16.8c-.1-.3-.2-.8-.3-1.1-.3-.2-.7-.3-1.1-.2.3.4.4.9.5 1.3.1.4.3.6.6.8.1.1.2.2.4.2 0-.2 0-.7-.1-1zm-31.8 5c-.5-.2-1-.2-1.5-.2l-.2.2c-.2.3-.9.3-1.7.4-.7.1-.4.4-.4.6 0 .2.5.3 1.2.3s1.2-.2 1.7-.4c.3-.2.9-.5 1.4-.7-.2 0-.3-.1-.5-.2zm37.8-2.3c-.4.3-1 .5-1.1.5.3.1.7.2 1 0 .6-.2 1.1-.5 1.6-.9-.1-.1-.3-.2-.4-.3-.2 0-.7.4-1.1.7z"/><path class="st0" d="M43.7 20.3c-.6.5-1.3.9-2 1.1-.6.2-1.2 0-1.7-.4-.2 0-.3.1-.5.1-.6 0-2.8-1-3.3-1.4l-.3-.3c-.2-.1-.5-.3-.7-.4-.3-.2-.5-.4-.7-.7-.2-.4-.2-1-.5-1.4h-1.9c-.8.1-3.7.5-4.8.7-1.1.2-3.4 0-4-.1-.1 0-.1 0-.1-.1-1.2 1-2 2.3-2.6 3.7 1.1.4 2.7 1 3.3 1.2 0 0 2.6.4 3.9.1 1.3-.2 3.2-.9 3.9-1.1.2-.1.4-.1.8-.1 0-.1-.1-.2-.1-.3-.3-.5-.8-.9-1.2-1.4-.2-.3.2-.7.4-.4.2.3.5.6.7.9.2.2.4.5.6.8.1.1.1.3.2.4.7.1 1.4.2 1.8.2.7.1 3.6.7 4.3.8.7.1 2.2.5 2.9.6s1.2-.2 1.7-.7c.4-.5.3-1 .1-1.5-.1-.1-.1-.2-.2-.3z"/><path class="st0" d="M43.9 14.7c-.1-.3-.9-.9-1.2-1-.2-.1-.5-.1-.8-.2-1 .6-1.7 1.2-2 2.4 0 .2-.1.3-.1.5s0 .2.2.3c.3.1.9.3 1.2.2 1.3-.4-.9-.7-.4-1.1.1 0 .1-.7.4-.5.5.3 1.3.7 1.6 0 .5-1.1.9.6.2 1.4-.5.7-1.2.8-2.1.9-.4 0-.9-.2-1.2-.3-.4-.1-.5-.5-.5-.9.1-1.4.9-2.3 2-3.1-.3-.3-.7-.8-.9-1.1-.3-.3-2-1-2.6-1.1h-5.1c-.6 0-2.1.1-2.8.4-.7.2-2.5.9-3.1 1.1-.6.1-2.3.7-2.8.7s-2.9.3-3.3.4c-.4.1-3.6.7-4 .8-.4 0-2.7-.2-4.1-.2s-2.3.4-2.8.7-2.1 1.4-2.7 2-1.7.9-2.2 1-1.8-.2-2.1-.1.7.6 1 .7c.3.1 1.1.2 1.6.2s1.3-.3 1.6-.5c.3-.2 1.6-1.1 2.2-1.5s2.1-1.2 2.6-1.4c.5-.2 2.3 0 2.5.2.1.2-.4.3-.7.4-.3.1-1.4.6-2.1.8s-1.8 1.4-2.3 1.7c-.5.5-1.8 2.2-2.1 2.4-.2.1-1.2 0-1.5-.2-.3-.2-.3-.4-.7-.5s-1.8 0-2.3-.2c-.5-.2-.9-1.3-.9-1.3s-.2-.1-.5 0c-.3.2-.1.3-.2.7s.2 1.4.6 1.8c.4.4 1.4.5 1.6.6h.1c.4.1.6.1.9.2.4.2.7.4.9.7.5 0 2.3.3 3.1.3.8 0 2-.6 2.6-1s3-2 3.9-2.5c.9-.5 1.3-.2 1.5-.3s3 1.3 3 1.3.3.1.7.3c.6-1.5 1.5-2.8 2.7-3.9-.3-.3-.6-.8-.7-1.1-.2-.5-.2-1.9-.2-1.9s.7-.1 1.2 0 2.4-.2 3.3-.5c.9-.2 3-1 3-1s-.1 1.1.3 1.8.8.7 1.7.7 1.4.4 2 .9c.1.1.2.2.3.2 0-.1.1-.1.1-.2.7-.4 1.6-.3 2.2.1h.4c.2 0 .4.1.6.1 0-.1 0-.3-.1-.4-.1-.3-.1-.6-.2-.9 0-.2-.1-.5-.2-.7-.1-.2-.4-.3-.6-.3-.2 0-.4-.1-.6-.2-.4-.2-.8-.4-1-.8 0-.1-.1-.2 0-.3.4-.5.9-.8 1.5-.8.4 0 .4.6 0 .6-.3 0-.7.2-.9.4.2.3.6.5 1 .6.5.1 1 .2 1.2.8.2.5.3 1.1.4 1.7 0 .2.1.4.1.6.1 0 .2.1.2.1.3.1 1.4 1.1 1.9 1.2s.8.3 2.3.3c1.4 0 1.3-.5 1.9-1 .5-.6.4-1.9.3-2.2zM38.8 13c.1 0 .5-.1.5-.1.1 0 .2-.5.4-.3s.4.2.3.5c0 .3-.5.5-.9.3-.3-.2-.5-.4-.3-.4z"/></svg>