<svg version="1.1" id="Layer_1" xmlns="http://www.w3.org/2000/svg" x="0" y="0" viewBox="0 0 44 35" xml:space="preserve"><style>.st0{fill:#4a4b4a}</style><path class="st0" d="M0 34.3h44v.7H0zM14.5 3c.3 1 .5 1.8.7 2.6.3 1 1 1.5 2 1.5 2.7.1 5.3-.1 7.9-.8l4.8-1.2c.8-.2 1.3 0 1.5.6.2.7-.2 1.2-1 1.4-2.4.6-4.8 1.2-7.3 1.8.1.6.3 1.2.3 1.8 0 1.2.2 2.4 0 3.6-.2 1.4.1 2.8.3 4.1.3 1.5.2 2.9-.4 4.2-.6 1.2-1.1 2.4-1.7 3.5-.4.8-1.1 1-1.7.7-.6-.3-.8-1-.4-1.7.5-1.1 1-2.3 1.6-3.4.4-.9.6-1.7.4-2.7-.2-.8-.3-1.5-.5-2.3-.2.5-.4 1.1-.5 1.6-.4 1.4-1.3 2.3-2.7 2.7l-3.3.9c-.8.2-1.4-.2-1.6-.9-.2-.6.2-1.2 1-1.5 1.2-.4 2.3-.7 3.5-1.1.3-.1.6-.4.7-.7 1.2-2.4.9-4.9.4-7.4-.1-.3-.1-.5-.2-.8 0-.1 0-.2-.1-.4-.7-.1-1.4-.2-2-.3-1.3-.3-2.3-1-2.8-2.3-.4-1-.6-2.1-.8-3.2-.2-1.1.1-1.4 1.2-1.7 0-1.3.6-1.9 1.7-1.9 1 .1 1.6.8 1.5 1.8-.2 1.3-1 1.7-2.5 1.5z"/><path class="st0" d="M20.2 6.3c-1.3 0-2.4-1.1-2.4-2.4 0-1.3 1.1-2.4 2.5-2.4s2.5 1.1 2.4 2.5c-.1 1.2-1.2 2.3-2.5 2.3z"/></svg>