<svg version="1.1" id="Layer_1" xmlns="http://www.w3.org/2000/svg" x="0" y="0" viewBox="0 0 44 35" xml:space="preserve"><style>.st0{fill:#4a4b4a}</style><path class="st0" d="M0 34.3h44v.7H0zm22-19.2c-3.1-.1-6.1-.5-9-1.5-1.2-.5-2.4-1-3.4-2-.7-.7-1.2-1.6-1.1-2.7.1-.7.5-1.2.9-1.7.9-.9 2-1.5 3.2-2 2.1-.9 4.2-1.3 6.4-1.5 2.6-.2 5.1-.2 7.7.2 2.2.3 4.4.9 6.3 2.1.6.4 1.3.9 1.8 1.5 1 1.1.9 2.5 0 3.7-.7.8-1.5 1.4-2.5 1.8-1.8.9-3.8 1.4-5.8 1.7-1.5.2-3 .2-4.5.4zm-6.3-7.7c1.1-.1 2.1-.3 2.9-.9.2-.2.5-.5.4-.8-.1-.2-.4-.4-.6-.5-.7-.2-1.4-.1-2 0-.7.2-1.3.4-1.8.9-.4.4-.3.9.2 1.1.3.2.6.2.9.2z"/><path class="st0" d="M35.3 11.8v6.1c0 .2-.1.5-.2.7-.5 1-1.3 1.6-2.1 2.2-1.8 1.2-3.8 1.8-5.8 2.2-4 .8-8 .7-11.9-.4-1.8-.5-3.4-1.1-4.9-2.3-.3-.3-.7-.6-1-.9-.5-.6-.8-1.2-.7-2 .1-1.8 0-3.7 0-5.5h.1c1.7 1.7 3.7 2.6 5.9 3.2 5.1 1.4 10.1 1.3 15.1-.2 2.1-.5 3.9-1.5 5.5-3.1z"/></svg>