<svg version="1.1" id="Layer_1" xmlns="http://www.w3.org/2000/svg" x="0" y="0" viewBox="0 0 44 35" xml:space="preserve"><style>.st0{fill:#4a4b4a}</style><path class="st0" d="M0 34.3h44v.7H0zM23.5.8c0-.4-.3-.7-.8-.8h-1.6c-.5 0-.8.3-.8.7v3.4c1.1-.1 2.2-.2 3.2-.3v-3zm-4.4 3.6V1.6c0-.5-.3-.8-.7-.9-.5-.1-1 0-1.5.1-.6.1-1 .6-1 1.2v3.4c1-.3 2.1-.7 3.2-1zm8.8-3c0-.6-.4-.9-.9-.9h-1.4c-.5 0-.8.3-.9.7-.1.9 0 1.7 0 2.6 1 .2 2.1.2 3.2.3V1.4zm4.4 7.5v-.6c-.1-.2-.1.1 0 .6M17.9 22.8v2.8c0 1 .5 1.5 1.6 1.4v-1c.1-1.3 1-2.2 2.3-2.2h5.3c1.3 0 2.2.9 2.3 2.2v.9c.9 0 1.3-.5 1.3-1.2v-3.4c0-.8-.4-1.3-1.2-1.3h-9.7c-1.5 0-1.9.3-1.9 1.8z"/><path class="st0" d="M20.7 27h7.6v-.9c0-.6-.4-1.1-1-1.1h-5.5c-.7 0-1 .5-1.1 1.1v.9zM32.3 3.9c0-1.2-1.1-2.2-2.3-2.1-.6 0-.9.3-.9.9v1.6c1.1.3 2.1.6 3.3.9-.1-.5-.1-.9-.1-1.3zm0 5c0 6.2-.1 9-1.8 10.9h-6.7c-1.8 0-3.6.1-5.3.1-.1 0-.2 0-.3-.1-.5-.4-1-.8-1.7-1.3h3.4c.4 0 .8 0 .9-.6 0-.5-.4-.6-.8-.6h-4.1c-.5 0-.9-.2-1.3-.5-1.6-1.6-2.5-3.6-2.9-5.9-.2-1.1.1-2.1 1.1-2.6.7-.4 1.5-.5 2.3-.8v.3c-.6 1.2-.3 2.5-.3 3.7 0 .2.4.4.6.6.2-.2.4-.4.5-.6.1-.1 0-.2 0-.3-.1-1.6.2-3 .8-4.5.1-.3.3-.5.8-.7 3-.9 6-1.2 9.1-.9 1.9.2 3.8.6 5.6 1.3v2.2c0 .2.1 1.9.2 3.3"/></svg>