<svg version="1.1" id="Layer_1" xmlns="http://www.w3.org/2000/svg" x="0" y="0" viewBox="0 0 44 35" xml:space="preserve"><style>.st0{fill:#4a4b4a}</style><path class="st0" d="M0 34.3h44v.7H0zM32.4 17c.6 0 1.2.1 1.7.3.6.2 1.2 0 1.5-.4.4-.4.5-1 .2-1.6-.2-.4-.5-.7-.9-.8-1.3-.4-2.7-.5-4.1-.3 0 0 0-.1-.1-.2.5-.5.8-1.4.8-2.4 0-1.3-.5-2.7-1.5-2.7-.7 0-1.4.2-2 .6-.2.1-.3.1-.4.2-.2-.1-.4-.1-.6-.1h-4l-2.6-4.1s-.5-.9-1.6-.9c0 0-.9-.1-1.5.6l-5.1 5.1c-.3.3-.5.8-.5 1.3 0 .8.4 1.4 1 1.7l.7.4c-.3-.1-.5-.1-.5-.1l-1.4-.2H8.9c-.7 0-1.2.5-1.3 1.2-.1.7.4 1.3 1.1 1.4l1.9.3v.2c0 .4.3.8.7.9l2.4.8c.2.1.4.1.6.1h.9l1.2 2.6-1.1.3c.2-.1.3-.2.3-.4s-.1-.3-.2-.4c-.2-.1-.3-.1-.5 0-.2-.3-.5-.5-.8-.8.1-.2.1-.5-.2-.7-.2-.1-.5-.1-.7.2-.3-.1-.7-.2-1-.3 0-.3-.2-.5-.5-.5s-.5.2-.5.5c-.4 0-.7.1-1 .3-.1-.2-.2-.2-.4-.2s-.3.1-.4.2c-.1.2-.1.3 0 .5-.3.2-.5.5-.8.8-.2-.1-.3-.1-.5 0s-.3.3-.2.4c0 .2.1.3.3.4-.1.3-.2.7-.3 1-.3 0-.5.2-.5.5s.2.5.5.5c0 .4.1.7.3 1-.2.1-.3.3-.2.6-.2.1 0 .2.2.2.1 0 .2 0 .2-.1.2.3.5.5.8.8-.1.2-.1.3 0 .5s.3.2.4.2c.2 0 .3-.1.4-.2.3.1.7.2 1 .3 0 .3.2.5.5.5s.5-.2.5-.5c.4 0 .7-.1 1-.3.1.2.2.2.4.2s.3-.1.4-.2c.1-.2.1-.3 0-.5.3-.2.5-.5.8-.8.1 0 .2.1.2.1.2 0 .4-.1.5-.4.1-.2 0-.4-.2-.6.1-.3.2-.7.3-1 .3 0 .5-.2.5-.5s-.2-.5-.5-.5v-.1l1.4-.4 1.2.8c.2.1.4.2.5.2h7.7c.3 0 .5-.2.5-.5.3-2.8 2.8-5 5.7-5zm-20.8 8.5c-1.6 0-2.9-1.3-2.9-2.9 0-1.6 1.3-2.9 2.9-2.9 1.1 0 2.2.7 2.7 1.7l-1 .3c-.5-.8-1.5-1.2-2.4-.8-.9.4-1.4 1.4-1.1 2.3.3.9 1.2 1.5 2.1 1.4 1-.1 1.7-1 1.7-1.9l1-.3v.3c-.1 1.5-1.4 2.8-3 2.8zm-.5-2.8c.1.3.3.4.6.3l.8-.2c-.1.4-.5.7-.9.7s-.8-.3-.9-.7c-.1-.4.1-.9.5-1.1.4-.2.9-.2 1.2.2l-.8.2c-.1 0-.2.1-.3.2-.2.2-.2.3-.2.4zM30.2 9.8c.1.1.5.6.5 1.7 0 .5-.1 1.1-.4 1.6-.1-.2-.3-.4-.5-.6-.1-.3-.1-.7-.1-1 0-1 .4-1.6.5-1.7zm-1.4 2c-.5-.2-1-.4-1.5-.4l.1-.1c.5 0 .8-.4.9-.7.2-.2.5-.3.7-.4-.1.5-.2.9-.2 1.4-.1 0 0 .1 0 .2zM20 8.3l1.5 2.5c.3.4.7.6 1 .5H26l-.1.1c-.4.1-.8.2-1.3.3-.9.2-2 .6-3.2 1-.2.1-.9.3-1.4.4-.1 0-.1-.1-.2-.1l-3-1.6L20 8.3zm.7 5.7l.9-.3c1.1-.4 2.1-.7 2.9-1l1.3 1.3v.5l-2.2 1.3-2.8 1.1v-2.2s0-.3-.1-.7zm-6.4 3.2c-.1 0-.2 0-.3-.1l-2.4-.8v-.2c0-.5-.3-.9-.8-1l-1.9-.3c-.2 0-.3-.2-.2-.3 0-.2.1-.3.3-.3h2.7l4.4.6 2 1.1v.6c0 .2 0 .3.1.5l-3.9.2zm4.3 4.4l-1.2-.8-1.2-2.6h.8c3.6.2 6.2-1.2 6.2-1.2l-.1.9c-.2-.1-.5-.2-.7-.2-.8 0-1.5.6-1.5 1.4 0 .8.6 1.5 1.4 1.5.8 0 1.5-.6 1.5-1.4l.5-2.7 2-1.2c.3-.2.5-.5.5-.8V14c0-.3-.1-.5-.3-.7l-.8-.8c.2 0 .4-.1.5-.1h.6c.9 0 1.7.3 2.3.9.3.3.5.5.7.8.1.1.1.2.2.3-3.3 1-5.7 3.8-6.1 7.2h-5.3zm4.3-2.4c0 .3-.2.5-.5.5s-.5-.2-.5-.5.2-.5.5-.5c.2 0 .5.2.5.5zm3 2.4h-1c.3-2.2 1.6-4.2 3.5-5.4 1.9-1.2 4.2-1.5 6.4-.8.1 0 .3.1.3.3.1.1.1.3 0 .4-.1.2-.3.3-.6.3-1.9-.6-3.9-.4-5.5.7-1.7.9-2.8 2.6-3.1 4.5zm6.5-1c-1.1 0-2 .9-2 2s.9 2 2 2 2-.9 2-2-.9-2-2-2zm0 3c-.5 0-1-.4-1-1 0-.5.4-1 1-1 .5 0 1 .4 1 1 0 .5-.4 1-1 1z"/><path class="st0" d="M36.3 22.1c-.1-.4-.2-.7-.3-1 .2-.1.3-.2.3-.4s-.1-.3-.2-.4c-.2-.1-.3-.1-.5 0-.2-.3-.5-.5-.8-.8.1-.2.1-.5-.2-.7-.2-.1-.5-.1-.7.2-.3-.1-.7-.2-1-.3 0-.3-.2-.5-.5-.5s-.5.2-.5.5c-.4 0-.7.1-1 .3-.1-.2-.2-.2-.4-.2s-.3.1-.4.2c-.1.2-.1.3 0 .5-.3.2-.5.5-.8.8-.2-.1-.3-.1-.5 0s-.3.3-.2.4c0 .2.1.3.3.4-.1.3-.2.7-.3 1-.3 0-.5.2-.5.5s.2.5.5.5c0 .4.1.7.3 1-.2.1-.3.3-.2.6.1.2.3.4.5.4.1 0 .2 0 .2-.1.2.3.5.5.8.8-.1.2-.1.3 0 .5s.3.2.4.2c.2 0 .3-.1.4-.2.3.1.7.2 1 .3 0 .3.2.5.5.5s.5-.2.5-.5c.4 0 .7-.1 1-.3.1.2.2.2.4.2s.3-.1.4-.2c.1-.2.1-.3 0-.5.3-.2.5-.5.8-.8.1 0 .2.1.2.1.2 0 .4-.1.5-.4.1-.2 0-.4-.2-.6.1-.3.2-.7.3-1 .3 0 .5-.2.5-.5s-.3-.5-.6-.5zm-3.9 3.4c-1.6 0-2.9-1.3-2.9-2.9s1.3-2.9 2.9-2.9c1.6 0 2.9 1.3 2.9 2.9.1 1.6-1.3 2.9-2.9 2.9zM20.8 4.7l1.5 1.6c.2.2.5.3.7.3.2 0 .4-.1.6-.2.7-.5 2-1.6 2.2-3v-.1c.1-.8-.3-1.6-.8-2.2C24.3.4 23.4 0 22.5 0c-1.3.1-2.1 1.1-2.5 1.6-.1.2-.2.3-.2.5v1c0 .3.1.5.3.7l.7.9zm3.9-1.1c-.1.3-.3.6-.5.9l-.8-1.2v-.2s.1-.1.2 0l1.1.5zm-3.9-1.4c.2-.3.9-1.2 1.8-1.2h.1c.6.1 1.2.4 1.5.9.2.2.3.4.5.7l-.7-.4c-.5-.2-1-.1-1.3.3-.3.4-.4.9-.1 1.4l.9 1.3c-.2.1-.3.3-.5.4L21.5 4l-.7-.8v-1z"/></svg>