<svg version="1.1" id="Layer_1" xmlns="http://www.w3.org/2000/svg" x="0" y="0" viewBox="0 0 44 35" xml:space="preserve"><style>.st1{fill-rule:evenodd;clip-rule:evenodd;fill:#4a4b4a}</style><path fill="#4a4b4a" d="M0 34.3h44v.7H0z"/><path class="st1" d="M40.2 11.9c.2-3.4.3-6.9.4-10.3.1-.3 0-.8-.6-1-4.7-1.9-9.4 1.9-14.2 0-.2-.1-.4-.1-.5 0-.4 0-.8.4-.9.8l-1.3 22.5c0 .4.2.7.6.8.1 0 .1.1.2.1.5 0 .8-.3.8-.8l.7-11.6c4.7 1.7 9.3-2 14-.1.6.1.8 0 .8-.4zm-9.2-.1c.1-1 .1-2 .1-2.9-1.1.1-2.1 0-3.2-.3.1-1.1.1-2.2.2-3.3 1.1.3 2.1.4 3.2.3.1-1 .1-1.9.1-2.9 1.1-.1 2.2-.3 3.3-.6L34.6 5l3.3-.6c0 1.1-.1 2.1-.1 3.2-1.1.1-2.2.3-3.3.6l.1-3.2c-1.1.2-2.1.4-3.3.6-.1 1.1-.1 2.1-.2 3.2 1.1-.1 2.2-.3 3.3-.6 0 1-.1 1.9-.1 2.9-1.1.4-2.2.6-3.3.7zM17.2 18l4.9-4.7-4.2 5.3c.2.3.3.5.3.8 0 .9-.7 1.7-1.6 1.7-.9 0-1.7-.7-1.8-1.6 0-.9.7-1.7 1.6-1.7.2 0 .5.1.8.2zm1.7 4.6h-4.4c-.4 0-.8.4-.8.8v1c0 .4.4.8.8.8h4.4c.4 0 .8-.3.8-.8v-1c-.1-.4-.4-.8-.8-.8zm.3 1.7c0 .1-.1.3-.3.3h-4.4c-.1 0-.2-.1-.2-.3v-1c0-.1.1-.3.2-.3h4.4c.1 0 .3.1.3.3v1zm3.1-16.4c-1.8-.9-3.8-1.4-5.9-1.4-3.5 0-6.8 1.4-9.3 3.8-2.5 2.5-3.8 5.7-3.8 9.3 0 2.6.8 5 2.1 7.2.1.1.2.2.4.2.1 0 .2 0 .2-.1.2-.1.3-.4.1-.5-.4-.6-.7-1.1-.9-1.7l1.1-.5c.2-.1.3-.3.2-.5-.1-.2-.4-.3-.5-.2l-1.1.5c-.5-1.2-.8-2.6-.8-3.9h1.2c.2 0 .4-.2.4-.4s-.2-.4-.4-.4H4.1c0-1.3.3-2.7.8-3.9l1.1.3h.1c.2 0 .3-.1.4-.3.1-.2 0-.4-.2-.5l-1.1-.4c.5-1.2 1.3-2.3 2.2-3.4l.9.9c.1.1.2.1.3.1.1 0 .2 0 .3-.1.2-.2.2-.4 0-.6l-.9-.8c1-.9 2.1-1.7 3.3-2.2l.4 1.1c.1.1.2.2.4.2h.1c.2-.1.3-.4.2-.5L12 8.1c1.2-.5 2.6-.8 3.9-.8v1.2c0 .2.2.4.4.4s.4-.2.4-.4V7.3c1.4 0 2.7.3 3.9.8l-.5 1.1c-.1.2 0 .4.2.5h.2c.1 0 .3-.1.4-.2l.5-1.1c.3.1.5.2.8.4.1-.3.1-.6.1-.9z"/><path class="st1" d="M27.6 14.4s0 .1.1.1l-1.2.5c-.2.1-.3.4-.2.5 0 .2.2.3.4.3h.1l1.1-.4c.4 1.2.7 2.6.8 3.9h-1.2c-.3 0-.4.2-.4.4s.2.4.4.4h1.2c0 1.4-.3 2.7-.8 3.9l-1.1-.5c-.2-.1-.4 0-.5.2-.1.2 0 .4.2.5l1.1.5c-.3.6-.6 1.1-.9 1.7-.1.2-.1.4.1.5.2.1.4.1.6-.1 1.4-2.2 2.2-4.6 2.2-7.2 0-1.8-.4-3.6-1.1-5.2h-.9z"/></svg>