<svg xmlns="http://www.w3.org/2000/svg" viewBox="0 0 44 35"><path d="M0 34.3h44v.7H0zm36.9-13.4c0-.8-.2-1.6-.5-2.3l-4.8-8.4L30.4 8l-1.5-2.7-1.2-2c-.1-.2-.3-.5-.5-.7C25.9.9 24 0 22 0c-1.9 0-3.8.9-5 2.3l-.6.9-1.2 2-1.5 2.7-1.2 2.2-4.8 8.4c-.3.7-.5 1.5-.5 2.3v.2c0 1.5.7 3 1.8 4.1 1.2 1.1 2.7 1.8 4.3 1.8h17.6c1.6 0 3.1-.6 4.3-1.8C36.3 24 37 22.6 37 21v-.1c-.1.1-.1 0-.1 0zM22 2.3c2.2 0 3.9 1.8 3.9 3.9 0 2.2-1.8 3.9-3.9 3.9-2.2 0-3.9-1.8-3.9-3.9 0-2.2 1.7-3.9 3.9-3.9zm-8.9 22.9c-2.2 0-3.9-1.8-3.9-3.9 0-2.2 1.8-3.9 3.9-3.9s3.9 1.8 3.9 3.9c0 2.1-1.7 3.9-3.9 3.9zm4.5-7.6c-2.2 0-3.9-1.8-3.9-3.9 0-2.2 1.8-3.9 3.9-3.9s3.9 1.8 3.9 3.9c0 2.2-1.8 3.9-3.9 3.9zm4.4 7.6c-2.2 0-3.9-1.8-3.9-3.9 0-2.2 1.8-3.9 3.9-3.9 2.2 0 3.9 1.8 3.9 3.9 0 2.1-1.7 3.9-3.9 3.9zm.5-11.5c0-2.2 1.8-3.9 3.9-3.9 2.2 0 3.9 1.8 3.9 3.9 0 2.2-1.8 3.9-3.9 3.9-2.1 0-3.9-1.7-3.9-3.9zm8.4 11.5c-2.2 0-3.9-1.8-3.9-3.9 0-2.2 1.8-3.9 3.9-3.9s3.9 1.8 3.9 3.9c0 2.1-1.7 3.9-3.9 3.9z" fill="#4a4b4a"/></svg>