<svg xmlns="http://www.w3.org/2000/svg" viewBox="0 0 44 35"><path fill="#4a4b4a" d="M0 34.3h44v.7H0z"/><path d="M31.2 7.8L16.7 22.2c1.2.4 2.4.6 3.7.6.5 0 1.1 0 1.7-.1l2.6-2.6c.2-.2.4-.3.7-.3.2 0 .5.1.7.3L33 27l3-3.1-7-6.9c-.4-.4-.4-1 0-1.3l2.6-2.6c.3-1.8.2-3.6-.4-5.3zM14.7 21.4L30.3 5.8c-.5-.9-1.2-1.7-1.9-2.5-2.1-2.1-5-3.3-8.1-3.3s-5.9 1.2-8.1 3.3c-2.1 2.2-3.3 5-3.3 8.1 0 3.1 1.2 5.9 3.3 8.1.8.8 1.7 1.4 2.5 1.9zm-2 3.3c0 1.3-1 2.3-2.3 2.3-1.3 0-2.3-1-2.3-2.3 0-1.2 1-2.3 2.3-2.3 1.3 0 2.3 1.1 2.3 2.3z" fill-rule="evenodd" clip-rule="evenodd" fill="#4a4b4a"/></svg>