<svg version="1.1" id="Layer_1" xmlns="http://www.w3.org/2000/svg" x="0" y="0" viewBox="0 0 44 35" xml:space="preserve"><style>.st0{fill:#4a4b4a}</style><path class="st0" d="M0 34.3h44v.7H0zM43.9 8.7c-.3-.4-.6-.7-1-1.1-.4-.4-.7-.7-1-1.2-.2-.5-.6-.9-.9-1.3-.3-.3-.6-.6-.8-.9 0 0-.1-.1-.2-.1-.3-.1-.5-.3-.6-.6-.1-.5-.1-.9-.1-1.4-.1-.1-.1-.1-.3-.1-.2.1-.3.3-.4.5 0 .2 0 .4-.1.6h-.3c-.1 0-.2 0-.2-.1-.1-.1-.2-.3-.3-.4 0 .1-.1.3-.1.4v.1c-.3-.1-.6.1-1 .5l-.4.4c-.3.1-.5.3-.7.5h.2l-.3.3-.8.4h.4l-.2.2h-.1c-.1.1-.3.1-.2.1-2.2 1.9-2.6 2.1-5.3 3-3.6.3-2.3 0-6.9-.6-.6-.1-1.1-.1-1.7-.2h-.1c-.6-.1-1.2-.1-1.7.1-.2 0-.8.3-.9.4-.8.4-2.8 1.5-2.9 1.6-.2.1-2 .5-2.6.6-.3.1-.7.1-.9.2 0 .6.1.9-.5 1.7-.4.6-.9.8-1.2 1 .2.1 3.4 1.8 3.7 1.9.3-.2.9-1 1-1.4.2-.6.4-1.7.5-1.8.1.1-.1.1 0 .8.1.6.3 1.1.7 1.6.8.9 1.8 1.6 2.8 2.1 0 .1 0 .1-.1.1-.2.5-.6.9-1.1 1.3-.2.2-.4.4-.5.7-.1.2-.1.5 0 .7.2.2.4.2.6.3.3.1.7.2 1 .2.4.1.7.2 1.1.3.1 0 .2.1.3.1.1.1.1.2.2.3v.2c0 .3.1.4.3.6.1.1.3.2.4.2.1.1.2.1.2.1.6.2 1.2.4 1.9.6.5.1.9.2 1.1.8.2.4.6.5.9.3.1-.1.3-.2.4-.3.5-.1.9-.2 1.1.1.1.2.5.5.7.5.9.1 1.8.2 2.8.2.7 0 1-.3.9-1 0-.2.4-2.6.3-2.9 0 0 0-.1-.1-.2v-.1c0-.2.1-.5.1-.7.3 0 .7-.1 1-.1h.4c.7.3 1.3.6 2 .8.3.1.3.3.2.5-.3.7-.8 1.2-1.7 1h-.5c-.5 0-.9.3-.9.8 0 .4.3.7.8.7.6 0 1.3.1 1.9 0 .3 0 .6-.2.8-.4.4-.6.8-1.1 1.1-1.7.1-.2.2-.4.4-.6.4-.6.2-1-.4-1.3-.2-.1-1.5-1.1-2.1-1.5 0-.1.1-.1.1-.1.3-.3.5-.6.5-1 0-.3.2-.6.4-.8.3-.3.5-.7.6-1.1.1-.3.1-.5.2-.8 0-.1.1-.1.1-.2.1 0 .1-.1.1-.2s0-.2.1-.3c.5-.9 1-1.8 1.3-2.9.1-.5.4-.9.6-1.3.1-.1.1-.1.2-.1s.2.1.4.1c.4 0 .7.1 1 .3.1 0 .2.1.3.1.4.2.7.3 1.1.5.2.1.4.2.4.5 0 .1.1.2.2.2.3 0 .6 0 .8-.2.1-.1.3-.2.5-.2.3 0 .4-.2.4-.5 0 0 0-.1.1-.1.6.4.7 0 .5-.3zM20.1 19.3c-.1-.1-.3-.1-.4-.2-.1-.1-.2-.2-.1-.3.1-.2.2-.4.3-.5.2.3.2.6.2 1zm8.8 3.3c-.8 0-1.3.1-2.1-.8-.1-.1-1.4.3-1.4.2-.1-.2-.3-.4-.6-.5-.1-.1-.1-.1-.2-.1s-.1-.1-.2-.1c-.3-.1-.5-.2-.8-.2V21c-.1-.3-.2-.5-.5-.6-.2-.1-.5-.2-.7-.2-.1 0-.2-.1-.2-.2 0-.7.1-1.4.1-2.1 0-.6.1-1.1.1-1.7 0-.1 0-.2.1-.3l.3-.3c.5.3 1 .7 1.5 1 .5.3 1.1.6 1.6.8.4.2.8.2 1.2.2h.1c.4.1.7.3 1.1.4.3.1.5.3.6.7 0 .5.1.9.1 1.4 0 .6.1 1.3.2 1.9v.2c.1.2-.1.4-.3.4zM.8 10.1c.8.4 1.8.2 2.2-.6.4-.8.2-1.8-.6-2.2-.8-.5-1.7-.2-2.2.6-.4.8-.2 1.8.6 2.2z"/><path class="st0" d="M12.4 15.7l-4.5-2.1s-.6-.4-1.3.1l-1.9 1.2-.8-2.9 5.7-.3c1.1-.1 1.1-1.5-.1-1.5l-6.5.3h-.8s-.7 0-1.1.7c0 0-.4.5-.1 1.1l1.2 4.2c-.3.2-.6.4-.8.6-.4.4-.6.8-.8 1.2-.2.4-.3.9-.3 1.5 0 .5.1 1 .3 1.4.2.4.4.8.8 1.1.7.7 1.6 1.1 2.6 1.1.5 0 1-.1 1.5-.3.4-.2.8-.4 1.2-.8.3-.3.6-.7.8-1.2.2-.4.3-.9.3-1.4 0-.5-.1-1-.3-1.5-.2-.4-.5-.8-.8-1.2-.2-.1-.3-.3-.5-.4l1.6-1 3.7 1.7c.5.3 1 .1 1.3-.3.2-.4 0-1-.4-1.3z"/></svg>