<svg version="1.1" id="Layer_1" xmlns="http://www.w3.org/2000/svg" x="0" y="0" viewBox="0 0 44 35" xml:space="preserve"><style>.st0{fill:#4a4b4a}</style><path class="st0" d="M0 34.3h44v.7H0zM33.6 16v2.9c0 1-.6 1.7-1.5 1.8-.5.1-1 .1-1.5.1-.7 0-1.4 0-2.1.1-1.5.1-3.1.1-4.6.2h-3.5c-1.2 0-2.3-.1-3.5-.1-1.5-.1-3-.1-4.5-.2-.6 0-1.2-.3-1.6-.8-.1-.2-.3-.5-.3-.8V13c0-.8.7-1.5 1.6-1.6.6-.1 1.1-.1 1.7-.1 1.5-.1 3-.1 4.4-.2 1.3 0 2.5-.1 3.8-.1 1 0 2 .1 3 .1 1.6.1 3.2.1 4.9.2.7 0 1.5 0 2.2.1.7.1 1.4.6 1.6 1.3v.5c-.1.8-.1 1.8-.1 2.8zm-6.6.1c.1 0 .1 0 .1-.1.9-.5 1.2-1.7.5-2.5-.3-.4-.8-.6-1.3-.6h-2.8v5.5c0 .1.1.1.1.1h.9v-2.3h1.2c.2 0 .3.1.4.3.2.6.5 1.2.7 1.9 0 .1.1.2.2.2h1c-.4-.9-.7-1.7-1-2.5zm-10.7-3.2c0 .1 0 .2.1.3.5 1.5.9 3.1 1.4 4.6.1.3.1.6.3.7.2.1.5 0 .8.1.2 0 .3-.1.3-.2.4-1.3.8-2.7 1.2-4 .1-.5.3-.9.4-1.4h-.7c-.1 0-.2.1-.2.2-.2.8-.5 1.6-.7 2.5-.2.5-.3 1-.5 1.6 0-.1-.1-.2-.1-.3-.4-1.3-.7-2.5-1.1-3.8 0-.1-.1-.2-.2-.2-.3-.1-.6-.1-1-.1zm15.1-2.4c-1.2-.1-2.4-.1-3.6-.2-1.8-.1-3.5-.2-5.3-.2-.8 0-1.7 0-2.5.1-.8 0-1.6.1-2.4.1-1.6.1-3.2.1-4.7.2h-.3c.1-3.3 2.9-7.8 8.1-8.5 5.8-.7 10.3 3.6 10.7 8.5z"/><path class="st0" d="M33 21.3c.1-.2.1-.4.2-.6 0-.1.1-.2.2-.2.7-.3 1.1-.9 1.1-1.7V13c0-.6-.3-1.1-.8-1.4-.1-.1-.2-.2-.2-.3 0-.3-.1-.5-.1-.9.3.2.5.3.7.4l.5.5h.1c-.1-.5-.1-1-.3-1.5-.6-2.2-1.9-3.9-3.6-5.3-.5-.4-1.1-.9-1.6-1.3-.9-.6-1.9-1.1-3-1.4-1.5-.5-3-.8-4.5-.7-2.1.1-4.1.7-6 1.7-1.6.9-3.1 2.1-4.3 3.5-.8 1.1-1.5 2.4-1.9 3.7-.1.4-.2.9-.2 1.3.4-.4.7-.7 1.3-.9 0 .3-.1.6-.1.9 0 .1-.1.1-.1.2-.5.3-.8.8-.8 1.5v5.6c0 .4-.1.7.1 1.1.2.4.5.6.8.8.2.1.3.2.4.5 0 .1.1.2.1.3-.5 0-.8-.2-1.2-.4-.4-.4-.6-.8-.7-1.3 0-.1-.1-.2-.1-.3-.8-.6-1.1-1.5-1.3-2.5-.2-1.1-.1-2.1.4-3.2v-2.5c.1-1.2.5-2.4 1-3.5.9-1.8 2.3-3.2 3.8-4.4C14.6 1.9 16.4 1 18.5.5 20 .1 21.4 0 22.9.1c1.3.1 2.6.4 3.8.9.8.3 1.6.7 2.4 1.1 2 1.1 3.7 2.6 5 4.6 1.3 1.9 1.8 3.9 1.7 6.2 0 .4 0 .8.2 1.2.6 1.7.5 3.3-.6 4.8-.3.4-.6.8-.8 1.3-.2.6-.8 1-1.6 1.1zm-19.6.3h1.4c1 0 1.9.1 2.9.1 1.2.1 2.3.1 3.5.2 1.3 0 2.6-.1 4-.1 1.4-.1 2.8-.1 4.2-.2.4 0 .8 0 1.2-.1-1.1 2.7-4.3 5.4-8.4 5.5-4.4.1-7.7-2.8-8.8-5.4z"/><path class="st0" d="M24.6 15.4v-1.6h1.7c.5.1.7.4.6.8 0 .4-.3.7-.7.7-.5.1-1 .1-1.6.1z"/></svg>