<svg xmlns="http://www.w3.org/2000/svg" viewBox="0 0 44 35"><path fill="#4a4b4a" d="M0 34.3h44v.7H0z"/><path d="M25.9 19.7c-.5.4-1.1.7-1.6.9-1.1.5-2.2.9-3.4 1.1-3.1.7-6.4.7-9.4-.3-.4-.1-1-.9-1.2-1.2-1.2-2.1-1.8-4.2-1.8-6.6v-.1c.7.4 1.5.8 2.2 1.1 3.7 1.5 7.5 1.3 11.2-.2 1.8 1.4 3.2 3.2 4 5.3m-12.5 4.2c2.6.4 5.3.2 7.9-.4 1.8-.4 3.6-1.1 5.3-2 .3 1.3.4 2.6.3 3.9 0 .2-.1.4-.2.6l-.3.3c-1.4.5-2.9.7-4.4.7-3.2 0-6.2-1.1-8.6-3.1zm15.4 1.2c.1-3.1-.7-6-2.4-8.5-.9-1.3-2.1-2.6-3.4-3.5 0 0-.1-.1-.1-.2.2-2.1 1.1-4.2 2.3-5.9h.1c1.6.8 3 2 4.2 3.3 2.2 2.3 3.7 5.1 4.7 8.1v.4c-.9 2.7-2.9 4.9-5.4 6.3zM12.7 13.4c-1.4-.4-2.7-1-3.8-1.8-.1-.1-.2-.4-.1-.5.8-4.7 4.1-8.6 8.6-10.3-2 2.3-3.3 5-4 8-.5 1.5-.7 3.1-.7 4.6zm22.5 2.2c-1.2-2.8-2.8-5.4-5-7.5-1.1-1-2.3-2-3.6-2.7 1.1-1 2.3-1.8 3.7-2.4.1 0 .2.1.3.1 3.1 2.6 4.9 6.3 4.9 10.4 0 .7-.1 1.4-.3 2.1zM20.1.4C20.5 0 21.4 0 22 0c2.3 0 4.6.6 6.6 1.7-2.8 1.4-5 3.7-6.3 6.5-.7 1.4-1.1 3.1-1.3 4.7-.9.6-2.5.8-3.4.9-1 .1-2 .1-3 0 0-1.9.3-3.9.9-5.7.9-2.9 2.4-5.5 4.6-7.7z" fill-rule="evenodd" clip-rule="evenodd" fill="#4a4b4a"/></svg>