<svg xmlns="http://www.w3.org/2000/svg" viewBox="0 0 44 35"><path d="M0 34.3h44v.7H0zM32.1 8.6c.9 3.6 1.1 7.3.6 11.1l.3.3c1.2-2 1.8-4.2 1.8-6.5 0-2-.5-4-1.4-5.7l-1.3.8zM23.3.9h-1.1c-4.4 0-8.3 2.3-10.6 5.7l1.4.8c3-2.8 6.5-5 10.3-6.5zm4.2 10.4c.3 2.4.5 4.9.5 7.4.5-.3 1.2-.5 1.8-.5.6 0 1.1.1 1.6.4.3-3.1.1-6.2-.6-9.2l-3.3 1.9zm1.9-8.1c-1-.7-2.1-1.3-3.3-1.6-4.3 1.2-8.4 3.4-11.8 6.5l3.3 1.9c3.7-2.7 7.6-5.1 11.8-6.8zm-7.2 9.5l10.6-6.1c-.6-.9-1.3-1.7-2.1-2.4-4.2 1.7-8.1 3.9-11.7 6.7l3.2 1.8zm-12.6.8c0 1.7.3 3.4 1 4.9.4-.2.9-.3 1.3-.3 1.1 0 2.1.5 2.8 1.4.4.5 1 .8 1.7.8s1.3-.3 1.7-.8c.4-.5.9-.9 1.6-1.2-3.5-1.6-6.9-3.6-10-6-.1.5-.1.9-.1 1.2zm13.3 5.3c.3.2.5.4.7.7.4.5 1 .8 1.7.8.4 0 .9-.1 1.2-.4.1-2.6-.1-5.3-.4-7.9l-3.2 1.9v4.9zm-1.4-1.1V14L10.9 7.8c-.5.9-.8 1.9-1.1 3 3.6 2.8 7.6 5.1 11.7 6.9zm21.8 7c-.7 0-1.3-.3-1.7-.8-.7-.9-1.7-1.4-2.8-1.4-1.1 0-2.1.5-2.8 1.4-.4.5-1 .8-1.7.8s-1.3-.3-1.7-.8l-.2-.3c-.7-.7-1.6-1.1-2.6-1.1-1.1 0-2.1.5-2.8 1.4-.4.5-1 .8-1.7.8s-1.3-.3-1.7-.8c-.6-.9-1.6-1.4-2.7-1.4s-2.1.5-2.8 1.4c-.4.5-1 .8-1.7.8s-1.3-.3-1.7-.8c-.7-.9-1.7-1.4-2.8-1.4-1.1 0-2.1.5-2.8 1.4-.4.5-1 .8-1.7.8s-1.3-.3-1.7-.8c-.6-.9-1.6-1.4-2.7-1.4S.9 23 .2 23.9c-.2.3-.2.8.1 1 .3.2.8.2 1-.1.4-.5 1-.8 1.7-.8s1.3.3 1.7.8c.7.9 1.7 1.4 2.8 1.4 1.1 0 2.1-.5 2.8-1.4.4-.5 1-.8 1.7-.8s1.3.3 1.7.8c.7.9 1.7 1.4 2.8 1.4 1.1 0 2.1-.5 2.8-1.4.4-.5 1-.8 1.7-.8s1.3.3 1.7.8c.7.9 1.7 1.4 2.8 1.4 1.1 0 2.1-.5 2.8-1.4.4-.5 1-.8 1.7-.8s1.3.3 1.7.8l.2.3c.7.7 1.6 1.1 2.6 1.1 1.1 0 2.1-.5 2.8-1.4.4-.5 1-.8 1.7-.8s1.3.3 1.7.8c.7.9 1.7 1.4 2.8 1.4.4 0 .7-.3.7-.7-.2-.5-.5-.8-.9-.8zM9 17.9c-.4.4-1 .7-1.6.7-.7 0-1.3-.3-1.7-.8-.7-.9-1.7-1.4-2.8-1.4-1.1 0-2.1.5-2.8 1.4-.2.3-.2.8.1 1 .4.2.8.2 1.1-.1.4-.5 1-.8 1.7-.8s1.3.3 1.7.8c.6.8 1.6 1.3 2.7 1.3.8 0 1.5-.3 2.1-.7-.2-.4-.4-.9-.5-1.4zm34.3.7c-.7 0-1.3-.3-1.7-.8-.7-.9-1.7-1.4-2.8-1.4-1.1 0-2.1.5-2.8 1.4-.2.2-.4.3-.6.5-.2.6-.4 1.2-.7 1.8 1-.1 1.8-.6 2.4-1.4.4-.5 1-.8 1.7-.8s1.3.3 1.7.8c.7.9 1.7 1.4 2.8 1.4.4 0 .7-.3.7-.7 0-.5-.3-.8-.7-.8zM7.7 12.5h-.3c-.7 0-1.3-.3-1.7-.8-.7-.9-1.7-1.4-2.8-1.4-1.1 0-2.1.5-2.8 1.4-.2.3-.2.8.1 1 .3.2.8.2 1-.1.4-.5 1-.8 1.7-.8s1.3.3 1.7.8c.7.9 1.7 1.4 2.8 1.4.2 0 .5 0 .7-.1-.1-.5-.2-.9-.4-1.4zm35.6 0c-.7 0-1.3-.3-1.7-.8-.7-.9-1.7-1.4-2.8-1.4-1 0-1.9.4-2.5 1.1 0 .7 0 1.3-.1 2 .4-.2.7-.5.9-.8.4-.5 1-.8 1.7-.8s1.3.3 1.7.8c.7.9 1.7 1.4 2.8 1.4.4 0 .7-.3.7-.7 0-.4-.3-.8-.7-.8z" fill="#4a4b4a"/></svg>