<svg xmlns="http://www.w3.org/2000/svg" viewBox="0 0 44 35"><path d="M0 34.3h44v.7H0zm36.2-22h-4l1.4-2.3c.3-.6.1-1.3-.4-1.7-.6-.3-1.3-.1-1.7.4L30.1 11l-1.9-3.4h2.7c.7 0 1.2-.5 1.2-1.2s-.5-1.2-1.2-1.2h-2.7l2-3.4c.3-.6.1-1.3-.4-1.7-.7-.3-1.4-.1-1.8.5L26 4l-1.4-2.3c-.3-.6-1.1-.8-1.7-.4-.6.3-.8 1.1-.4 1.7l1.4 2.3H20L21.4 3c.3-.6.1-1.3-.4-1.7-.6-.3-1.3-.1-1.7.4L17.9 4l-2-3.4c-.3-.6-1.1-.8-1.7-.4-.6.3-.8 1.1-.4 1.7l2 3.4h-2.7c-.7 0-1.2.5-1.2 1.2s.5 1.2 1.2 1.2h2.7l-1.9 3.4-1.4-2.3c-.3-.6-1.1-.8-1.7-.4-.6.3-.8 1.1-.4 1.7l1.4 2.3h-4c-.7 0-1.2.5-1.2 1.2s.5 1.2 1.2 1.2h4l-1.4 2.3c-.3.6-.1 1.3.4 1.7.2.1.4.2.6.2.4 0 .8-.2 1.1-.6l1.4-2.3 1.9 3.4h-2.7c-.7 0-1.2.5-1.2 1.2s.5 1.2 1.2 1.2h2.7l-2 3.4c-.3.6-.1 1.3.4 1.7.2.1.4.2.6.2.4 0 .8-.2 1.1-.6l2-3.4 1.4 2.3c.2.4.6.6 1.1.6.2 0 .4-.1.6-.2.6-.3.8-1.1.4-1.7L20 21.9h3.9l-1.4 2.3c-.3.6-.1 1.3.4 1.7.2.1.4.2.6.2.4 0 .8-.2 1.1-.6l1.4-2.3 2 3.4c.2.4.6.6 1.1.6.2 0 .4-.1.6-.2.6-.3.8-1.1.4-1.7l-2-3.4h2.7c.7 0 1.2-.5 1.2-1.2s-.5-1.2-1.2-1.2h-2.7l1.9-3.4 1.4 2.3c.2.4.6.6 1.1.6.2 0 .4-.1.6-.2.6-.3.8-1.1.4-1.7l-1.4-2.3h4c.7 0 1.2-.5 1.2-1.2.1-.8-.4-1.3-1.1-1.3zm-10.8 7h-6.7l-3.4-5.8 3.4-5.8h6.7l3.4 5.8-3.4 5.8z" fill="#4a4b4a"/></svg>