<svg xmlns="http://www.w3.org/2000/svg" viewBox="0 0 110 22"><path d="M6.9 11.3c0-2.4.6-4.2 2-5.5 1.3-1.3 3.1-2 5.5-2s4.2.6 5.6 1.9c1.3 1.3 2 3.1 2 5.4 0 1.7-.3 3.1-.8 4.1-.6 1.1-1.4 1.9-2.5 2.5-1.1.6-2.4.9-4 .9s-3-.3-4-.8c-1.1-.5-1.9-1.3-2.6-2.5-.9-.9-1.2-2.3-1.2-4zm4.5 0c0 1.5.3 2.5.8 3.1.5.6 1.3 1 2.2.9 1 0 1.7-.3 2.2-.9.5-.6.8-1.7.8-3.4 0-1.4-.3-2.3-.8-3-.5-.6-1.3-.9-2.2-.9-.9 0-1.6.3-2.2 1-.6.7-.9 1.7-.8 3.2zM23.8 4h6.6c1.3 0 2.4.2 3.2.5.8.4 1.5.9 2 1.5.5.7.9 1.4 1.1 2.3.2.9.4 1.8.4 2.8 0 1.5-.2 2.7-.5 3.6-.3.8-.8 1.6-1.5 2.1-.6.6-1.3 1-2 1.2-1 .3-1.9.4-2.7.4h-6.6V4zm4.4 3.3v7.9h1.1c.9 0 1.6-.1 2-.3.4-.2.7-.6.9-1.1.2-.5.3-1.3.3-2.5 0-1.5-.3-2.6-.8-3.1-.5-.6-1.3-.8-2.5-.8l-1-.1zM38.9 4h6.6c1.3 0 2.4.2 3.2.5.8.4 1.5.9 2 1.5.5.7.9 1.4 1.1 2.3.2.9.4 1.8.4 2.8 0 1.5-.2 2.7-.5 3.6-.3.8-.8 1.6-1.5 2.1-.6.6-1.3 1-2 1.2-1 .3-1.9.4-2.7.4h-6.6V4zm4.5 3.2v7.9h1.1c.9 0 1.6-.1 2-.3.4-.2.7-.6.9-1.1.2-.5.3-1.3.3-2.5 0-1.5-.3-2.6-.8-3.1-.5-.6-1.3-.8-2.5-.8l-1-.1zm9.9 6.4l4.2-.3c.1.7.3 1.2.6 1.6.5.6 1.1.9 2 .9.6 0 1.1-.2 1.5-.5.3-.3.5-.6.5-1s-.2-.7-.5-1c-.3-.3-1.1-.6-2.3-.8-2-.4-3.3-1-4.2-1.7-.9-.8-1.3-1.8-1.3-2.9 0-.7.2-1.4.6-2.1.4-.7 1.1-1.2 1.9-1.6.9-.4 2-.6 3.5-.6 1.8 0 3.2.3 4.2 1s1.5 1.8 1.7 3.3l-4.2.3c-.1-.6-.3-1.1-.7-1.4-.4-.3-.9-.4-1.5-.4-.5 0-.9.1-1.2.3-.3.2-.4.5-.4.8 0 .2.1.4.3.6.2.2.7.4 1.5.5 1.9.4 3.3.8 4.2 1.3.8.4 1.5 1 1.8 1.6.4.6.6 1.3.6 2.1 0 .9-.3 1.8-.8 2.6s-1.2 1.4-2.1 1.8c-.9.4-2.1.6-3.5.6-2.5 0-4.2-.5-5.1-1.4-.7-1-1.2-2.2-1.3-3.6zm14.8-9.7h8.3c1.4 0 2.5.3 3.2 1 .7.7 1.1 1.5 1.1 2.6 0 .9-.3 1.6-.8 2.2-.4.4-.9.7-1.6 1 1 .2 1.8.7 2.3 1.3.5.6.7 1.4.7 2.3 0 .7-.2 1.4-.5 2-.3.6-.8 1.1-1.4 1.4-.4.2-.9.4-1.7.5-1 .1-1.7.2-2 .2H68l.1-14.5zm4.5 5.6h1.9c.7 0 1.2-.1 1.4-.4.3-.2.4-.6.4-1s-.1-.7-.4-1c-.3-.2-.7-.4-1.4-.4h-2l.1 2.8zm0 5.7h2.3c.8 0 1.3-.1 1.6-.4.3-.3.5-.6.5-1.1 0-.4-.2-.8-.5-1-.3-.3-.9-.4-1.6-.4h-2.3v2.9zM83.4 3.9h4.5v14.4h-4.5V3.9zm6.2 0h13.5v3.6h-4.5v10.9h-4.5V7.5h-4.5V3.9zM70 0h2.2v2.8H70zm5 0h2.2v2.8H75zm-5 19.2h2.2V22H70zm5 0h2.2V22H75z" fill="#fff"/></svg>