<svg version="1.1" id="Layer_1" xmlns="http://www.w3.org/2000/svg" x="0" y="0" viewBox="0 0 44 35" xml:space="preserve"><style>.st0{fill:#f0f300}</style><path class="st0" d="M0 34.3h44v.7H0zm27.1-14.8c.5 0 .9.1 1.5.1v-2c-.3-.1-.7-.2-1.1-.3-.2.8-.3 1.5-.4 2.2zm-18-1.4c.5.6.9 1.3 1.4 2 .1.2.2.2.4.1.3-.1.6-.2.9-.4-1-1-1.9-2-2.9-3.1-.1.6-.1 1 .2 1.4zm19.6-1.7c.1-1.5.1-3 .2-4.4-.4.2-.7.4-.9.7-.4.5-.5 1.1-.6 1.7v1.8c.5 0 .9.1 1.3.2zm6.5 4c0-.3.1-.7.1-1-1.8-.4-3.5-.9-5.4-1.3v1.8c1.7.1 3.5.3 5.3.5zm-5.3.8c0 1.2.2 2.2 1 3.2.9 1.2 2.3 1.6 3.6 1.7.2-1.5.4-2.9.6-4.2-1.8-.4-3.5-.5-5.2-.7zm-12.2-4.8c-.2.7.3 1.5 1.1 1.6.8.2 1.5-.3 1.6-1.1.1-.7-.3-1.5-1.1-1.6-.7-.1-1.4.4-1.6 1.1z"/><path class="st0" d="M33.5 8.9c-1.3-3.7-3.6-6.4-7.4-7.9-4.5-1.8-8.9-1.2-12.7 1.9-2.7 2-4.2 4.7-4.6 8.1-.2 1.3-.1 2.6.1 3.8 0 .1.1.2.2.3 1.4 1.4 2.7 2.9 4 4.2.1.1.2.1.3.2 1.3.2 2.5.9 3.4 1.7.6.4 1.2 1 1.8 1.3 1.8.8 3.4.8 5-.3 1.3-.9 2-2.2 2.3-3.7.2-1.1.2-2.1.1-3.2-.1-.9 0-1.8.3-2.6.9-2.2 3.4-3 5.4-1.8.6.3 1.1.7 1.8.8h.4c0-1-.1-1.9-.4-2.8zM19 19.3c-1.5 0-2.7-1.2-2.7-2.7s1.2-2.7 2.7-2.7 2.7 1.2 2.7 2.7c0 1.5-1.2 2.7-2.7 2.7zM31 9c-.3.1-.7 0-.9-.4 0-.1-.1-.2-.1-.2-1.2-3-3.3-4.8-6.4-5.4-2.4-.6-4.5-.3-6.6 1-.7.4-1.3 1-1.9 1.5-.3.3-.7.3-.9 0-.3-.3-.3-.7 0-1 .2-.3.5-.5.8-.7 1.9-1.6 4.1-2.5 6.6-2.5h.9c.3 0 .6.1 1 .1 2.6.5 4.7 1.7 6.4 3.7.7.9 1.2 1.8 1.6 2.9 0 .5-.2.8-.5 1z"/></svg>