<svg version="1.1" id="Layer_1" xmlns="http://www.w3.org/2000/svg" x="0" y="0" viewBox="0 0 44 35" xml:space="preserve"><style>.st0{fill:#f0f300}</style><path class="st0" d="M0 34.3h44v.7H0zM20.8 6l2.5 2.5c-.3.3-.7.4-1.1.4-.5 0-.9-.2-1.3-.5-.3-.3-.5-.8-.5-1.3 0-.4.1-.8.4-1.1zm.4-.5l2.6 2.6-.2.2L21 5.7l.2-.2zm7.4-1.3c.2 0 .4.1.6.2.3.3.3.8 0 1.1l-4.1 1.9 3-3c.1-.2.3-.2.5-.2zm-1.4-1.4c.2 0 .4.1.5.2.3.3.3.8 0 1.1l-3.6 3.6L23 6.6 26.7 3c.1-.2.3-.2.5-.2zm-1.3-1.4c.2 0 .4.1.5.2.3.3.3.8 0 1.1l-3.6 3.6-1.1-1.1 3.6-3.6c.1-.1.3-.2.6-.2zm-2-1.2c.3-.3.8-.3 1.1 0 .1.2.2.3.2.6 0 .2-.1.4-.2.6l-.2.2-3 3L23.9.2z"/><path class="st0" d="M32.9 24.7l-5.2-5.2c-.2-.2-.4-.3-.6-.4-1.3-1.6-1.6-3.4-1.6-4.1.4-1.9 0-4.1-1.2-6-.5.5-1.1.9-1.8 1l.3.3-1.2 1.2-1.2-1.2.5-.5c-.2-.1-.5-.2-.7-.4l-.3.3-1.2-1.2.5-.5c-.1-.3-.2-.6-.2-.9l-.9.9L17 6.8l1.1-1.1c.1 0 .2 0 .2.1l.7.7c.1-.5.3-1 .6-1.4-2.6-1.1-5.5-.8-7.3 1-2.6 2.6-2.1 7.3 1.1 10.4 2.3 2.3 5.3 3.2 7.8 2.6.7.1 2.5.3 4.1 1.6l.3.6 5.2 5.2c.5.5 1.4.5 1.9 0 .7-.4.7-1.3.2-1.8zm-8.5-10.5l-.7-.7.7-.7c.1.5.1 1 0 1.4zm-.2.9c-.2.5-.5 1.1-.8 1.5l-1.3-1.3 1.2-1.2.9 1zm-1-4.4l1 1c0 .1 0 .2.1.2L23.2 13 22 11.9l1.2-1.2zm-.5 2.9l-1.2 1.2-1.2-1.2 1.2-1.2 1.2 1.2zm-6.8 0l-1.2 1.2-1.2-1.2 1.2-1.2 1.2 1.2zm-2.3-3.4L14.8 9l1.2 1.2-1.2 1.2-1.2-1.2zm1.7 1.7l1.2-1.2 1.2 1.2-1.2 1.1-1.2-1.1zm2.8.5l1.2 1.2-1.2 1.2-1.1-1.2 1.1-1.2zm1.7 1.7l1.2 1.2-1.2 1.2-1.2-1.2 1.2-1.2zm1.2-2.2L19.8 13l-1.2-1.2 1.2-1.2 1.2 1.3zM18.1 9l1.2 1.2-1.2 1.2-1.1-1.2L18.1 9zm-.5-.5l-1.2 1.2-1.2-1.2 1.2-1.2 1.2 1.2zm-.5-2.9l-.7.7-.7-.7h1.4zm-2.1.2l1 1L14.8 8l-1.3-1.3c.4-.4.9-.7 1.5-.9zm-2.1 1.4l1.3 1.3L13 9.7l-1-1c.3-.6.6-1.1.9-1.5zm-1 2.3l.7.7-.7.7c-.1-.5-.1-.9 0-1.4zm.1 2.3l1.1-1.1 1.2 1.2-1.2 1.1-1-1s-.1-.1-.1-.2zm2 3.7c-.4-.4-.7-.9-1-1.3l.1-.1 1.2 1.2-.3.2zm1.9 1.5c-.5-.3-.9-.6-1.3-1l.2-.2 1.1 1.2zm-.6-1.7l1.2-1.2 1.2 1.2-1.2 1.2-1.2-1.2zm2.7 2.6l-1-1 1.2-1.2 1.2 1.2-1.2 1.1s-.1 0-.2-.1zm1.2.3l.7-.7.7.7h-1.4zm2.1-.3l-1-1 1.2-1.2 1.3 1.3c-.4.5-.9.7-1.5.9zm4.4 1.6l-.2.2c-.9-.6-1.8-1-2.6-1.2.4-.2.7-.5 1-.8s.6-.6.8-1c.2.8.6 1.7 1.2 2.6l-.2.2z"/></svg>