<svg xmlns="http://www.w3.org/2000/svg" viewBox="0 0 44 35"><path d="M0 34.3h44v.7H0zm29.3-22.4c-1.3 1.4-1.3 3.5.1 4.8 1.3 1.3 3.5 1.3 4.8-.1.7-.6 1-1.5 1-2.5-.3.2-.6.3-1 .6 0 .1-.2.3-.3.4-.1.2-.3.4-.4.6-.4.3-1.1.6-1.6.6-.6 0-1.2-.3-1.6-.6-.4-.4-.7-1.1-.7-1.6s.3-1.2.7-1.7c0-.1.2-.2.3-.3.2-.2.4-.3.5-.4.2-.3.5-.6.6-1-.8.1-1.7.5-2.4 1.2zm5.3-10.7c1.4 1.4 1.4 3.4-.1 4.6L23 16l-3.5-3.5L29.6 1c1.3-1.3 3.3-1.4 4.6-.1l.4.3zm-24 21.4c-.5-.3-1.2-.1-1.7.4-.6.5-.6 1.5 0 2.1l1.5 1.4c.5.6 1.5.6 2.1 0 .4-.3.5-1.1.4-1.6l-2.3-2.3zm.7-.7l.6-.7 2.4 2.5-.5.5-2.5-2.3zm3.6 1.1l-2.5-2.5.4-.4 2.6 2.5-.5.4zm.5-.4l6.9-6-3.5-3.3-6 6.8 2.6 2.5zM31 12.5c.1-.2.3-.3.4-.5.3-.3.6-.6.7-1.2.7.2 1.4.4 1.9 1.1.5.4.9 1.1 1 1.8-.4.2-.7.4-1.1.7-.2.2-.3.3-.4.5l-.4.4c-.4.4-.7.6-1.3.6-.5 0-1-.2-1.3-.5-.3-.4-.6-.7-.6-1.3 0-.5.2-1 .5-1.3.2-.1.4-.3.6-.3z" fill="#f0f300"/></svg>