<svg xmlns="http://www.w3.org/2000/svg" viewBox="0 0 44 35"><path d="M0 34.3h44v.7H0zm27.5-13.9c.8 1.1 1.2 2.9 1.3 4.3v.4l-.3.2c-1.9 1-4 1.6-6.1 1.7H21l1-1c1.7-1.7 3.3-3.5 4.6-5.5l.5-.7.4.6zm-8.4 6.2c-2.7-.6-5.1-2-6.9-4l-.5-.5c4.6-2.3 9.4-3.9 14.3-2.9l-.6.8c-1.6 2.4-3.6 4.6-5.8 6.5l-.2.2-.3-.1zm10.8-3.3c-.3-1.5-.8-3.2-1.9-4.3l-.3-.3.2-.4c.3-.6.6-1.1.9-1.7l.3-.6.5.3c1.5.9 3 2 4 3.3l.2.3-.2.3c-.7 1.3-1.7 2.4-2.8 3.3l-.8.7-.1-.9zm-.3-8.8l.6-1.8.1-.5.5.1c1.3.3 2.7.3 3.9 0l.6-.1v1.2c0 1.5-.3 3-.7 4.4l-.3.9-.6-.7c-1.1-1.2-2.5-2.1-3.9-3l-.4-.2.2-.3zm1.2-4.1c.4-1.7.6-3.4.6-5.2V3.7l1 1.2c1.3 1.6 2.3 3.5 2.8 5.5l.1.6-.6.1c-1.1.2-2.3.2-3.5 0l-.5-.1.1-.6zm-4.1-2.8c-1-1.2-1.9-2.4-3.1-3.4-1.9-1.7-3.5-3-6.3-3.5l1.9-.4C20.1.1 21.1 0 22 0c2.8 0 5.6.9 7.8 2.5l.2.2V3c.2 2.2 0 4.5-.4 6.6l-.2 1c-1-1-1.8-1.9-2.7-3zm-17.6 2c1-3.3 3.2-6 6.1-7.8l.2-.1c2.4-.2 4.6 1 6.5 2.5 1.5 1.2 2.7 2.6 3.9 4.1 1.1 1.3 2 2.5 3.5 3.4l-.1.4c-.2.6-.3 1.1-.5 1.7l-.2.6-.6-.3c-5.5-2.5-12.2-3.5-18.2-3.8H9l.1-.7zm1.5 11.1c-1.4-2.2-2.1-4.7-2.1-7.2 0-.5 0-.9.1-1.4l.1-.5h.5c6 .3 12.7 1.2 18.2 3.7l.5.2-.3.5-.9 1.8-.2.4-.4-.1c-4.7-1.2-10.5.6-14.8 2.8l-.5.2-.2-.4z" fill="#f0f300"/></svg>