<svg version="1.1" id="Layer_1" xmlns="http://www.w3.org/2000/svg" x="0" y="0" viewBox="0 0 44 35" xml:space="preserve"><style>.st0{fill:#f0f300}</style><path class="st0" d="M0 34.3h44v.7H0zM26.4 3.9c-1 .1-1.9.2-2.8.3-3.3.4-6 .6-6.8 1.5-.9.9-1.3 2.9-1 5.5 1.1-.4 5.4-1.9 11.2-2.8 3.9-.6 6-.9 7.2-1-.8-1.6-1.9-3-3.3-4.2-1.5.3-2.9.5-4.2.6l-.3.1zm9 8c-.2-1.3-.5-2.6-1-3.7-1-.1-2.9.2-7.4.9-5.7.9-10 2.3-11 2.7l.4 2.9c6.9-.3 14.5-.9 19-2.8zm-8.6-8.8c1-.1 2.1-.3 3.2-.5C28.3 1.3 26.3.5 24.2.1c1.1 1 2 2 2.6 3zM16.5 5c1.1-.8 3.4-1.1 6.4-1.4-1.1-1.5-3.3-2.3-4.6-2.7-.2-.1-.4-.1-.7-.2-1.8.6-3.4 1.6-4.8 2.9 1.2 0 2.5.4 3.7 1.4zM30 19.9c-.8.1-1.6.3-2.5.4-.5 2.4-2 5.1-4.1 6.6 1.7-.2 3.2-.7 4.7-1.4 1.3-1.6 2.3-3.8 1.9-5.6z"/><path class="st0" d="M26.7 20.4c-1.8.3-3.8.7-6.1 1.2h-.1.1c-.6 1.3-1.5 3.3-3.5 4.4 1.5.6 3.1.9 4.9.9 2.4-1.2 4.2-4.1 4.7-6.5zm5.7-.9c-.5.1-1.1.2-1.7.3.4 1.6-.2 3.4-1.1 5 2-1.4 3.7-3.3 4.7-5.5-.6 0-1.3.1-1.9.2zm-15.1 5.7c-3.4-1.9-5.7-5.4-6.5-10-.7-4.6.2-8.9 1.7-10.9h-.4c-2.2 2.4-3.6 5.6-3.6 9.2 0 5.4 3.2 10.1 7.8 12.2.4-.1.7-.3 1-.5zm6.5-21.7c.7-.1 1.5-.2 2.3-.2-.8-1.2-2-2.3-3.2-3.3H22c-1 0-2 .1-3 .3 2 .6 3.8 1.6 4.8 3.2zm10.8 14.9c.6-1.5.9-3.2.9-4.9v-.9c-4.6 1.8-11.8 2.5-18.9 2.9.4 1.2.8 2.4 1.3 3.3s1.5 2.4 2.7 2.2c5.3-1.1 9-1.8 11.7-2.2.8-.2 1.6-.3 2.3-.4z"/><path class="st0" d="M11.6 15.1c.7 4.4 3 7.8 6.3 9.6 1-.9 1.5-2 2-3-.9-.2-1.8-1-2.7-2.6-.5-1-1-2.2-1.4-3.6h-.1l-.1-.4c-.9-3.6-1.1-7.7.3-9.6-.9-.7-1.8-1-2.6-1.1-1.4 1.5-2.5 6-1.7 10.7z"/></svg>