<svg version="1.1" id="Layer_1" xmlns="http://www.w3.org/2000/svg" x="0" y="0" viewBox="0 0 44 35" xml:space="preserve"><style>.st0{fill:#f0f300}</style><path class="st0" d="M0 34.3h44v.7H0zM43.9 10c-.3-.4-.7-.8-1.1-1.2-.4-.4-.8-.8-1-1.3-.3-.5-.6-1-1-1.5-.3-.3-.6-.7-.9-1 0 0-.1-.1-.2-.1-.4 0-.7-.2-.7-.5-.1-.5-.1-1-.2-1.5 0-.2-.1-.2-.2-.1-.2.1-.4.3-.4.6 0 .2-.1.4-.1.6h-.3c-.1 0-.2 0-.3-.1-.1-.1-.2-.3-.3-.4 0 .2-.1.3-.1.5v.2c-.3-.1-.7.1-1.1.5h-.1c-.1.1-.3.3-.5.4-.3.1-.5.3-.8.5h.2l-.3.3c-.2.1-.5.2-.7.4h.4l-.2.2h-.1c-.1.1-.2.1-.3.1.2.6.4 1.2.4 1.7 0 1.5-1.7 2.5-3.2 1.8-1.4-.7-2.7-1.5-4.3-2.3.5 1.5-.5 2.3-1.4 3.1-.3.3-.6.6-1 .9-.7.5-1.1 1.2-1.4 2-.4 1.2-1.6 1.8-2.7 1.4-1.2-.4-1.8-1.6-1.4-2.8.4-1.1.6-2.3 1.7-3.1-.6-.1-1.2-.2-1.8-.2h-.1c-.6-.1-1.3-.1-1.9.1-.2 0-.4.1-.7.2v.1c-.1.1-.3.1-.4.2-.8.4-3 1.6-3.2 1.7-.2.1-2.2.5-2.8.6-1.2.2-2.5.6-3.6 1-.6.2-1.1.4-1.6.8-.4.3-.8.8-1.2 1.2-.5.5-1.1.9-1.7 1.3-.2.1-1.2.6-.8 1 .2.2.4 0 .6-.1s.3-.1.5-.2c-.4.4-.9.8-1.3 1.2.1.1-.3.3-.3.6 0 .1.1.3.3.3.1 0 .1 0 .2-.1.2-.1.4-.3.6-.4.5-.3 1-.5 1.5-.7.5-.1 1.1-.2 1.6-.3.6-.1 1.2-.2 1.9-.2 1.2-.1 2.3.2 3.5.1 1-.1 2-.7 2.4-1.7.2-.6.4-1.8.6-2 .1.1-.2.1.2 1.9 1 1.2 2.4 2.4 3.7 3 0 .1 0 .1-.1.1-.3.6-.7 1-1.2 1.4-.3.2-.5.5-.7.9-.1.4 0 .7.4.9.1 0 .2.1.3.1.4.1.8.2 1.1.3.4.1.8.2 1.2.4.1 0 .2.1.3.1.1.1.1.2.2.4v.2c0 .3.1.5.3.6.2.1.3.2.5.3.1.1.2.1.2.1.7.3 1.4.4 2 .6.5.1 1 .3 1.2.9.2.4.6.6 1 .4.2-.1.3-.2.4-.4.5-.1 1-.2 1.2.1.2.3.5.5.8.5 1 .1 2 .2 3 .2.8 0 1.1-.3 1-1 0-.3.4-2.8.4-3.1 0 0-.1-.1-.1-.2v-.1c0-.3.1-.5.1-.8.4 0 .7-.1 1.1-.1h.4c.7.3 1.4.6 2.2.9.3.1.3.3.2.6-.4.8-.9 1.3-1.8 1.1h-.6c-.6 0-.9.3-1 .8 0 .4.4.8.9.8.7 0 1.4.1 2 0 .3 0 .7-.2.8-.4.4-.6.8-1.2 1.2-1.9.1-.2.3-.4.4-.7.4-.7.3-1.1-.5-1.4-.2-.1-1.6-1.2-2.3-1.6.1-.1.1-.1.1-.2.3-.3.5-.6.6-1s.2-.6.4-.9c.3-.3.5-.7.6-1.2.1-.3.2-.6.2-.9 0-.1.1-.1.2-.2.1 0 .1-.2.1-.2 0-.1 0-.2.1-.3.5-1 1.1-2 1.4-3.1.1-.5.4-1 .7-1.4.1-.1.1-.1.3-.1.1 0 .3.1.4.1.4 0 .8.1 1.1.3.1 0 .2.1.3.1.4.2.8.3 1.2.5.2.1.4.3.4.5 0 .1.1.2.3.3.3 0 .6 0 .8-.2s.3-.2.5-.2c.3 0 .5-.2.5-.5 0-.1 0-.1.1-.2.7-.2.8-.6.6-.9zM17.5 21c.1-.2.2-.4.4-.6.2.4.2.7.2 1.1-.2-.1-.3-.1-.4-.2-.2 0-.2-.2-.2-.3zM.9 16.7c-.1.1-.1 0 0 0zM.5 19c0-.1 0-.1 0 0zm21.3 4.4c0-.1 0-.1 0 0-.1-.4-.3-.6-.6-.7-.3-.1-.5-.2-.7-.3-.1 0-.2-.1-.2-.3.1-.8.1-1.5.1-2.3 0-.6.1-1.2.1-1.8 0-.1 0-.2.1-.3l.3-.3c.6.4 1.1.7 1.7 1.1.6.3 1.1.6 1.7.9.4.2.8.2 1.3.3h.2c.4.1.8.3 1.2.4.4.1.6.3.6.7.1.5.1 1 .1 1.5 0 .7.1 1.4.2 2.1v.3c0 .3-.1.4-.4.4-.9 0-1.4.1-2.3-.9-.1-.1-1.5.3-1.6.2-.1-.2-.4-.4-.6-.5-.1-.1-.1-.1-.3-.1-.1 0-.1-.1-.2-.1-.1-.2-.4-.2-.7-.3z"/><path class="st0" d="M22.7 8.9c-1.3 1-2.5 2.1-2.9 3.8-.1.7 0 1.2.6 1.4s1.2 0 1.4-.7c.3-1.1.9-1.8 1.7-2.4.4-.4.8-.7 1.2-1.1 1-1 1-1.1.5-2.4-.4-1-.7-1.9-1.2-3 .8-.1 1.5-.2 2.3-.3 1-.2 1-.2 1 .7V6c0 .6.2 1 .7 1.3l3.3 1.8c.7.4 1.3.2 1.6-.3.3-.6.1-1.1-.6-1.5-.8-.4-1.6-.9-2.4-1.3-.4-.2-.5-.5-.5-.9.1-.6.1-1.2.1-1.9 0-1.1-.4-1.5-1.5-1.4-1.7.2-3.5.5-5.2.7-1.1.2-1.5.7-1 1.8.4 1.1.8 2.2 1.3 3.3.2.5.1.9-.4 1.3zm9.8-4.4c1.3.2 2.4-.6 2.6-1.9.2-1.3-.6-2.4-1.9-2.6-1.2-.2-2.4.7-2.6 2-.2 1.2.6 2.3 1.9 2.5z"/></svg>