<svg version="1.1" id="Layer_1" xmlns="http://www.w3.org/2000/svg" x="0" y="0" viewBox="0 0 44 35" xml:space="preserve"><style>.st0{fill:#f0f300}</style><path class="st0" d="M0 34.3h44v.7H0zm13.4-15.8c0-4.8 3.8-8.5 8.5-8.5s8.5 3.8 8.5 8.5-3.8 8.6-8.6 8.5c-4.7 0-8.4-3.8-8.4-8.5zm4.6-.1c0 2.1 1.7 3.9 3.9 3.9 2.1 0 4-1.8 4-3.9 0-2.2-1.7-3.9-3.9-3.9-2.3 0-4 1.8-4 3.9z"/><path class="st0" d="M20.8 9.1c-4.5.7-7.1 3.5-8.3 7.9-2.9.3-6.5-1.6-8-5.1C3.1 8.6 4 4.6 6.8 2.1c2.6-2.4 6.7-2.8 9.9-1 2.8 1.7 4.7 5.3 4.1 8zM8.5 8.5c0 2.2 1.8 4 4.2 4 1.9 0 3.6-1.9 3.7-3.9 0-2.1-1.8-4-3.9-3.9-2.2-.1-4 1.7-4 3.8zm22.8 11.4c-.1-1.6-.3-3.1-.4-4.6 1.4.3 2.7-.3 3.6-1.4.5-.6.9-1.6.9-2.5.2-1.9-1.4-3.6-3.2-3.9-2.2-.3-3.8.8-4.6 3.3L23.4 9c.5-3.6 4.9-6.6 9.1-6.1 4.5.5 7.8 4.6 7.5 9.1-.2 4.9-4.7 8.2-8.7 7.9zm-8.4-1.4c.1.2.2.3.2.6 0 .2 0 .3-.1.5-.1.1-.2.3-.4.3-.2.1-.4.1-.7.1-.2 0-.4 0-.6-.1s-.4-.1-.5-.2l.3-.5c.1.1.2.2.4.2.1 0 .3.1.5.1s.3 0 .4-.1.1-.2.1-.3c0-.2-.2-.4-.6-.4h-.3v-.5l.6-.7h-1.3V17H23v.4l-.7.8c.2 0 .4.1.6.3z"/><path class="st0" d="M32.9 11.6c.1.1.1.3.1.4 0 .2-.1.3-.2.5-.1.1-.3.2-.4.3-.2.1-.4.1-.7.1-.2 0-.5 0-.7-.1s-.3-.2-.4-.3-.2-.3-.2-.5 0-.3.1-.4l.3-.3-.3-.3c-.1-.1-.1-.2-.1-.4s0-.3.1-.4c.1-.1.2-.2.4-.3.2-.1.4-.1.6-.1s.4 0 .6.1c.2.1.3.2.4.3.1.1.1.3.1.4 0 .1 0 .3-.1.4-.1.1-.1.2-.3.3.5.1.7.2.7.3zm-.7.7c.1-.1.2-.2.2-.3s-.1-.2-.2-.3c-.1-.1-.2-.1-.4-.1s-.3 0-.4.1-.1.2-.1.3 0 .2.1.3.2.1.4.1.3 0 .4-.1zm-.7-1.8c-.1.1-.1.2-.1.3s0 .2.1.3.2.1.3.1.3 0 .3-.1c.1-.1.1-.2.1-.3s0-.2-.1-.3-.2-.1-.3-.1-.2 0-.3.1zM13 7v3h-.7V7.6h-.6V7H13z"/></svg>