<svg version="1.1" id="Layer_1" xmlns="http://www.w3.org/2000/svg" x="0" y="0" viewBox="0 0 44 35" xml:space="preserve"><style>.st0{fill:#f0f300}</style><path class="st0" d="M0 34.3h44v.7H0zm28.9-29h-.5l1.6 6.6h3.9l1.3-6.6h-6.3zm-.3-3.4c0-1.1-.8-1.9-1.9-1.9s-1.9.8-1.9 1.9c0 1 .8 1.9 1.9 1.9 1.1 0 1.9-.9 1.9-1.9zm-8.9 6.3c.3 0 .6-.1.9-.2.7-.3 1.2-.8 1.5-1.4s.3-1.4.1-2c-.4-1-1.4-1.7-2.5-1.7-.3 0-.6 0-.9.1-1.4.5-2.1 2-1.6 3.4.4 1 1.4 1.8 2.5 1.8zm6.4-3.6l-.3-.1c-.4-.1-.9 0-1.1.4l-1.6 3.4c-.1.2-.3.4-.5.4l-1.6.2-3.2.3c-.2 0-.4.1-.6.2l-6.3 5.1c-.1.1-.3.3-.2.5 0 .2.1.4.3.5l.7.4c.1.1.4.2.5.2.2 0 .4-.1.6-.2l3.4-2.8-1 4.1v.1l-1.3 3.3c-.1.3-.4.6-.7.7l-3.7 1.5c-.2.1-.4.3-.4.5-.1.2 0 .4.2.7l.3.4c.2.3.6.4 1 .4.1 0 .3 0 .4-.1l3.9-1.4c.4-.1.9-.6 1.1-1l1.3-3.1.8-.1.2 1.5c0 .3 0 .9-.2 1.2l-1.9 4.1c-.1.3-.1.5 0 .7s.4.3.6.4h.6c.4 0 .9-.3 1.1-.7l1.9-3.7c.2-.4.3-1 .3-1.4v-3.1l1.4-7.4 2.2-.3c.4 0 .8-.4.9-.7l1.7-4.1c.1-.2.1-.4 0-.6-.4-.2-.5-.3-.8-.4zm6.3 2.2l-.5-1-.5 1 .5 1 .5-1zm-1.4 0l-.5-1-.5 1 .5 1 .5-1zm2.8 0l-.5-1-.5 1 .5 1 .5-1zm-.5 1.7l-.5 1 .5 1 .5-1-.5-1zm-.7-1.3l-.5 1 .5 1 .5-1-.5-1zm-1.2 2.3l.5 1 .5-1-.5-1-.5 1zm-1.4 0l.5 1 .5-1-.5-1-.5 1zm1.2-2.3l-.5 1 .5 1 .5-1-.5-1zm2.2 4.3l-.1-.3-.1.3h-.4l.3-.7-.5-1-.5 1 .3.7H32l-.1-.3-.1.3h-.4l.4-.7-.5-1-.5 1 .4.7h-.4l-.1-.3-.1.3h-.1l-.1-.4.1-.2-.5-.7-.4-1.4.2.3.5-1-.5-1-.4.7-.1-.5.3-.6-.6-1h.4l.4.7.4-.7h.7l.4.7.4-.7h.7l.4.7.4-.7h.7l.4.7.4-.7h.4l-.6 1.1.3.5-.1.6-.4-.7-.5 1 .5 1 .2-.4-.6 1.2-.4.9.2.4-.1.3-.2-.1z"/><path class="st0" d="M21.2 21.7l.6.1v-11l-5.1 1.9-3.4 7.5z"/></svg>