<svg version="1.1" id="Layer_1" xmlns="http://www.w3.org/2000/svg" x="0" y="0" viewBox="0 0 44 35" xml:space="preserve"><style>.st0{fill:#f0f300}</style><path class="st0" d="M0 34.3h44v.7H0zM18.6 1c-.5 0-1 .3-1.2.7-.1.1-.1.2-.2.4 0 .1-.1.3-.1.4v9l6-10.4h-4.5V1zm-3.1.6c-.3-.2-.7-.2-1.1-.1-.4.1-.7.3-.9.7l-.6 1 2.6-1.6zm-.7 13.7l-4.4-7.7-1.7 2.9c-.4.7-.2 1.6.5 2l5.5 3.2c.1-.1.1-.2.1-.4 0 .1 0 .1 0 0zm1.4-12.9l-4.3 2.4h-.1l-.2.2c-.5.3-.8.9-.7 1.4.1.3.1.4.2.6l4.3 7.5.8-1.4V2.4zm1 17v.4c0 .8.6 1.4 1.4 1.4h1.8l-3.2-1.8zm2.7 2.8c.4.6 1.2.7 1.9.4l.5-.3-.2-.1h-2.2zm6.4 1.3c-.3.1-.6.2-.9.2-.4.9-.4 2 0 2.9l.2.4h.9c-.6-1.1-.6-2.4-.2-3.5z"/><path class="st0" d="M29.3 19.1l1.8 1.8-.7.7-4.4-4.4c-.5-.5-1.2-.5-1.7 0s-.5 1.3 0 1.7l3.4 3.4c.2.2.2.4 0 .6-.8 1.1-1 2.5-.4 3.7l.2.4h5.2v-6.7c0-1-1-3.1-1.8-3.8-.3.4-1.6 2.4-1.6 2.6zM25 13.3v-1c-.3.2-.5.4-.8.5l.8.5zm2.4-5.1l-3.4.6c-.3.1-.6.3-.7.7-.1.3.1.7.4.9l.2.1c.1.1.3.1.5.1l1.3-.1h.1c.1 0 .2.1.2.1v.2l.6 1.2c.1.1.2.3.3.4l.2.1c.4.2.9.1 1.1-.3.1-.2.1-.5.1-.7l-.9-3.3z"/><path class="st0" d="M35.5 5.9c-.1-.4-.3-.7-.7-.9L26.4.2c-.7-.4-1.6-.2-2 .5l-8.7 15c-.1.2-.2.5-.2.7 0 .5.3 1 .7 1.3l8.3 4.8c.5.3 1.2.2 1.7-.2l-2.7-2.7c-.9-.9-.9-2.2 0-3.1s2.2-.9 3.1 0l2 2 1.9-3.3L35.3 7c.2-.3.3-.7.2-1.1zm-6.6 7.2c-.6.5-1.4.6-2.1.2l-.2-.1c-.3-.2-.5-.4-.7-.7-.1.5-.1 1.1.1 1.6 0 .1 0 .3-.1.4-.1.1-.2.2-.4.2-.1 0-.2 0-.2-.1l-2.5-1.4c-.2-.1-.3-.3-.2-.5 0-.2.2-.4.4-.4.5-.1 1-.4 1.5-.7-.3 0-.7-.1-1-.2l-.2-.1c-.7-.4-1-1.1-.9-1.9.1-.7.7-1.3 1.4-1.5l3.8-.7c.2 0 .5.1.5.3l1.3 3.6c.3.7.1 1.5-.5 2z"/></svg>