<svg xmlns="http://www.w3.org/2000/svg" viewBox="0 0 44 35"><path d="M0 34.3h44v.7H0zm24.6-17.6h-5.1c-.2.2-.4.5-.4.9v3.1H25v-3.1c-.1-.4-.2-.7-.4-.9zm-6.3-6.9v.3s0 .1.1.1v.1s0 .1.1.1l.1.1.1.1.1.1s.1 0 .1.1h.1s.1 0 .1.1h.3l.7 5.2H24l.7-5.2h.3s.1 0 .1-.1h.1s.1 0 .1-.1l.1-.1.1-.1.1-.1s0-.1.1-.1v-.1s0-.1.1-.1v-.3l.4-3.7c.1-.5-.2-.9-.5-1.1l-1.6-1.1v-2C23.9.9 23.1 0 22 0s-1.9.9-1.9 1.9v2L18.4 5c-.4.2-.6.7-.5 1.1l.4 3.7zm7.3 11.5h-7.1c-.5.3-.9.9-.9 1.6V25c0 1 .9 1.9 1.9 1.9h5.1c1 0 1.9-.9 1.9-1.9v-2c0-.7-.4-1.3-.9-1.7z" fill="#f0f300"/></svg>