<svg version="1.1" id="Layer_1" xmlns="http://www.w3.org/2000/svg" x="0" y="0" viewBox="0 0 44 35" xml:space="preserve"><style>.st0{fill:#f0f300}</style><path class="st0" d="M0 34.3h44v.7H0zm.9-10c-.2.3-.1 1 .1 1.3.4.5 1 1 1.6 1.3.9.4 1.3.1 1.8-.7 1.1-1.8 2.2-3.7 3.3-5.5.6-1 1.2-1.9 1.8-2.9-1-.7-1.9-1.2-2.8-1.8-2 2.7-3.9 5.5-5.8 8.3zm8.3-11.9c.8.6 1.5 1.1 2.1 1.5 2.7-4.4 5.3-8.7 8-13-.5-.3-.8-.6-1.3-.9-3 4.2-5.9 8.3-8.8 12.4zM7.4 15c.9.6 1.7 1.1 2.6 1.7.4-.7.7-1.2 1.1-1.9-.8-.6-1.5-1.1-2.3-1.6-.5.6-1 1.1-1.4 1.8zm20.8 3.1c-1.6 0-2.9 1.3-2.9 2.9s1.3 2.9 2.9 2.9 2.9-1.3 2.9-2.9c.1-1.6-1.2-2.9-2.9-2.9zm4.5-7.5c-1.6 0-2.9 1.3-2.9 2.9s1.3 2.9 2.9 2.9c1.6 0 2.9-1.3 2.9-2.9s-1.3-2.9-2.9-2.9zm4.4 7.5c-1.6 0-2.9 1.3-2.9 2.9s1.3 2.9 2.9 2.9S40 22.6 40 21s-1.3-2.9-2.9-2.9z"/><path class="st0" d="M43.2 20.9s0-.1 0 0c0-.8-.2-1.6-.5-2.3l-4.8-8.4L36.7 8l-1.5-2.7-1.2-2c-.1-.2-.3-.5-.5-.7C32.3.9 30.4 0 28.4 0c-1.9 0-3.7.9-5 2.3l-.6.9-1.2 2-1.5 2.7-1.2 2.2-4.8 8.4c-.3.7-.5 1.5-.5 2.3v.2c0 1.5.7 3 1.8 4.1 1.2 1.1 2.7 1.8 4.3 1.8h17.4c1.6 0 3.1-.6 4.3-1.8 1.1-1.1 1.8-2.5 1.8-4.1v-.1zM28.2 2c2.2 0 3.9 1.8 3.9 3.9 0 2.2-1.8 3.9-3.9 3.9-2.2 0-3.9-1.8-3.9-3.9 0-2.1 1.8-3.9 3.9-3.9zm-8.8 22.9c-2.2 0-3.9-1.8-3.9-3.9 0-2.2 1.8-3.9 3.9-3.9s3.9 1.8 3.9 3.9c0 2.2-1.8 3.9-3.9 3.9zm4.4-7.5c-2.2 0-3.9-1.8-3.9-3.9s1.8-3.9 3.9-3.9 3.9 1.8 3.9 3.9-1.7 3.9-3.9 3.9zm4.4 7.5c-2.2 0-3.9-1.8-3.9-3.9 0-2.2 1.8-3.9 3.9-3.9 2.2 0 3.9 1.8 3.9 3.9.1 2.2-1.7 3.9-3.9 3.9zm.6-11.4c0-2.2 1.8-3.9 3.9-3.9 2.2 0 3.9 1.8 3.9 3.9s-1.8 3.9-3.9 3.9c-2.2 0-3.9-1.7-3.9-3.9zm8.3 11.4c-2.2 0-3.9-1.8-3.9-3.9 0-2.2 1.8-3.9 3.9-3.9S41 18.9 41 21c.1 2.2-1.7 3.9-3.9 3.9z"/></svg>