<svg xmlns="http://www.w3.org/2000/svg" viewBox="0 0 44 35"><path d="M0 34.3h44v.7H0zM27.7 1.4c-.1 0-.1-.1-.2-.1h-.1C25.8.4 24 0 22 0h-.7c-2.9.1-5.6 1.2-7.8 3C11.4 4.7 9.8 7.1 9 9.8c-.3 1.2-.5 2.4-.5 3.7 0 1.7.3 3.3.9 4.8 1 2.7 2.8 4.9 5.2 6.5 2.1 1.4 4.6 2.2 7.4 2.2h.6c2.9-.1 5.6-1.2 7.8-2.9 2.2-1.8 3.9-4.2 4.6-7V17c.2-.8.4-1.7.4-2.6v-.8c0-5.4-3.2-10-7.7-12.2zm-1 1.9c.4-.2 1.1-.3 1.7-.5 2.6 1.5 4.6 4 5.5 7.1-.4.7-1.1 1.7-1.6 1.7-.6 0-2.6-1.2-3.6-1.6-1-.4-1.3-.8-1.5-2.2-.2-1.4-1.2-4.2-.5-4.5zm-13.2 1C15.7 2.2 18.7 1 21.9.9h.1c.4.6.8 1.1 1 1.3.4.4.2.6-.2 1.1-.4.5-2.2 3.1-3 3.4-.8.4-3.5-.5-4.4-.5-.8-.1-1.8.3-1.9-1.3v-.6zm-1.6 14.6c-.4 0-.9-.2-1.4-.4-.7-1.5-1-3.2-1.1-4.8 0-1.4.2-2.8.6-4 .2-.1.4-.2.7-.3 1.1-.4 1.5-.1 1.9.6.4.6 2.2 3.5 2.2 3.7s-.1.3-.4 1.1c-.3.7-1.8 4.1-2.5 4.1zm11.8 6.3c-.2.3-.4.5-.6.8-.4 0-.7 0-1-.1-2.8 0-5.4-.9-7.5-2.5v-.2c0-.8-.3-1.8 1-2.1 1.3-.3 4-1.1 4.3-1 .2.1 3.5 3.3 4 3.8.5.6.3.7-.2 1.3zm1.8-8.3c-.7.2-2.5.8-3.4 1.2-.9.4-1.6.5-2-.1-.5-.7-2.3-2.9-2.7-3.5-.6-.6-.6-1.2-.2-1.7.3-.5 3.2-4.3 3.2-4.3l5.8 1.8s.3 3.9.3 5-.3 1.4-1 1.6zm3.7 6.8c-.6-.2-1.2-.5-1.6-.6-.8-.4-.4-1.8-.2-2.9.2-1 0-2 .5-2.9.5-.8 4-2.5 4.8-2.5s1.1.9 1.5 1.5c-.7 3.1-2.5 5.7-5 7.4z" fill="#f0f300"/></svg>