<svg xmlns="http://www.w3.org/2000/svg" viewBox="0 0 44 35"><path d="M0 34.3h44v.7H0zm7.4-9.2c-.2.1-.2.5-.1.7.2.4.4.7.7.9.4.3.7.3 1.1-.1.9-.9 1.7-1.8 2.6-2.6.5-.5.9-.9 1.4-1.3-.5-.5-.9-1-1.3-1.4-1.4 1.3-2.9 2.5-4.4 3.8zm6.4-5.4c.4.4.7.8 1 1.1 2.1-2.1 4.2-4.1 6.3-6.2-.2-.2-.4-.4-.6-.7-2.3 2-4.5 3.9-6.7 5.8zm-1.4 1.1c.4.5.8.9 1.2 1.3l.9-.9c-.4-.4-.7-.8-1.1-1.3-.3.4-.7.6-1 .9zM29.9 6.7c.1 0 .1 0 .1-.1v-.2l-.7-.9.3-1.1v-.1h-.2l-1.1.4-1-.7h-.2l-.1.1.1 1.2-.8.7-.1.1c0 .1.1.1.1.1l1.1.3.4 1.1c0 .1.1.1.1.1s.1 0 .1-.1l.6-1 1.3.1zm-8.8-1.2l.7.2.2.7s0 .1.1.1h.1l.4-.6h.7s.1 0 .1-.1v-.1L23 5l.2-.7v-.1h-.1l-.7.3-.6-.4h-.1v.8l-.6.4v.2zm9.6 8.9l.3-.9v-.1h-.1l-.9.3-.7-.5h-.1l-.1.1v.9l-.7.5s-.1.1 0 .1c0 0 0 .1.1.1l.9.2.3.8.1.1s.1 0 .1-.1l.5-.8h.9s.1 0 .1-.1v-.1l-.7-.5zm-7 3.6l.2-.7v-.1h-.1l-.7.3-.6-.4h-.1v.8l-.6.4v.1s0 .1.1.1l.7.2.2.7s0 .1.1.1h.1l.4-.6h.7s.1 0 .1-.1v-.1l-.5-.7zm-8.6-7.3s0 .1 0 0l1.1.4.3 1 .1.1s.1 0 .1-.1l.5-.8h1s.1 0 .1-.1v-.1l-.6-.8.3-1v-.1h-.1l-.9.4-.8-.6h-.1l-.1.1.1 1-.8.6c-.2-.1-.2 0-.2 0zm7.6 3.8c0 .1.1.1.2.1s.1 0 .2-.1l.9-1.4h1.7c.1 0 .2 0 .2-.1v-.2l-1-1.3.5-1.6c0-.1 0-.2-.1-.2-.1-.1-.1-.1-.2 0l-1.5.6-1.6-1h-.2c-.1 0-.1.1-.1.2l.1 1.6-1.3 1c-.1 0-.1.1-.1.2s.1.1.2.2l1.1.3c-.3.3-.6.6-.9.8.2.2.4.4.6.7.3-.3.6-.5 1-.8l.3 1zm-3.1-6.6c.1.1.2.1.3.1.1 0 .2 0 .2-.1.1-.1.2-.3 0-.5l-4.6-5.3c-.1-.1-.3-.2-.5 0-.1.1-.2.3 0 .5l4.6 5.3zm5.7-1.7c.2 0 .3-.2.3-.3L25.5.4c0-.2-.2-.3-.3-.3-.2 0-.3.2-.3.3l.1 5.5c-.1.1.1.3.3.3zm3.2 2.9c.1.1.2.2.3.2h.1L35 7c.2-.1.3-.3.2-.4-.1-.2-.3-.3-.4-.2l-6.1 2.2c-.2.1-.3.3-.2.5zm7.9 2.5l-6.3-.3c-.2 0-.3.1-.4.3 0 .2.1.3.3.4l6.3.3c.2 0 .3-.1.3-.3.2-.2 0-.4-.2-.4zm-11.1 4.3c-.2 0-.3.2-.3.4l.4 7.2c0 .2.2.3.3.3.2 0 .3-.2.3-.4l-.4-7.2c.1-.1-.1-.3-.3-.3z" fill="#f0f300"/></svg>