<svg version="1.1" id="Layer_1" xmlns="http://www.w3.org/2000/svg" x="0" y="0" viewBox="0 0 44 35" xml:space="preserve"><style>.st0{fill:#f0f300}</style><path class="st0" d="M0 34.3h44v.7H0zm28.8-20.1c-.2-.3-.3-.6-.5-.9-.4.2-.9.4-1.3.5.2.4.4.7.6 1.1v.1c-.3.2-.5.3-.8.5l.3.6c1-.6 1.9-1.1 2.9-1.7l-.3-.6c-.3.1-.6.2-.9.4zm-13.3-1.7c-.1-.2-.2-.5-.2-.8 0-.4.3-.5.6-.2.2.2.3.4.5.6.6 1.1 1.2 2.1 1.8 3.2.1-.7.2-1.3.3-2v-.4c-.3-.5-.6-1-.9-1.6-.2-.3-.4-.7-.7-.9-1.1-1-2.6-.5-2.9.9-.1.6 0 1.2.3 1.8.5.9 1 1.7 1.5 2.6.3.4.4.9.4 1.4-.1.7-.7 1.1-1.4 1-.6-.1-.9-.5-1.2-1-1.1-1.9-2.2-3.9-3.4-5.8-.3-.4-.5-.9-.7-1.4-.4-1-.2-1.5.7-2 1.3-.8 2.7-1.6 4-2.3.3-.1.5-.3.8-.4.3-.2.6-.1 1 .1l.9.6c.6.3 1.2.7 1.8 1V5.6c0-.1 0-.3.1-.4-.8-.5-1.6-1-2.4-1.4-.5-.3-1-.3-1.5-.1-.4.1-.6.2-.9.3-1.6.9-3.1 1.8-4.7 2.7-.1.1-.3.3-.5.4-.6.5-.9 1.2-.9 2 0 .7.2 1.3.5 1.9 1.3 2.2 2.5 4.5 3.8 6.7.3.5.7 1 1.3 1.3 1.6 1 3.6.2 3.9-1.6.2-.9-.1-1.7-.5-2.4-.5-.8-1-1.7-1.4-2.5zm17.8 9.3c-1.1-1.8-2.2-3.7-3.2-5.6-.1-.1-.1-.2-.2-.3.3-.2.6-.3.8-.5l-.3-.6c-1 .6-1.9 1.1-2.9 1.7l.3.6c.3-.2.6-.3.8-.5.1.1.1.2.2.3 1.1 1.9 2.2 3.8 3.3 5.6.5.8.4 1.5-.2 2.2-1 1.2-2.5 1-3.3-.3-.6-1-1.2-2.1-1.8-3.1-.3-.4-.6-.5-1-.3l-.6.3c-.5.2-1 .1-1.4-.1v1.7c.6.2 1.2.1 2-.2.2-.1.2 0 .3.1.5.9 1 1.8 1.6 2.7.5.8 1.2 1.3 2.1 1.4.8.1 1.6-.1 2.3-.5 1.5-.8 2.3-2.7 1.2-4.6z"/><path class="st0" d="M35.7 11c.2-3.2.3-6.4.4-9.6.1-.3 0-.7-.6-.9-4.4-1.8-8.7 1.8-13.1 0-.2-.1-.4-.1-.5 0-.4 0-.8.4-.8.8l-1.3 20.8c0 .4.2.7.6.8.1 0 .1.1.2.1.4 0 .8-.3.8-.7l.7-10.8c4.3 1.6 8.6-1.8 13-.1.3.1.6 0 .6-.4zm-8.6-.1c.1-.9.1-1.8.1-2.7-1 .1-2 0-3-.3.1-1 .1-2 .2-3 1 .3 1.9.4 3 .3.1-.9.1-1.8.1-2.7 1-.1 2-.3 3-.6l-.1 2.7c1-.2 2-.4 3-.5 0 1-.1 2-.1 3-1 .1-2 .3-3 .6l.1-3-3 .6c-.1 1-.1 2-.2 3 1-.1 2-.3 3-.5 0 .9-.1 1.8-.1 2.7-.9.1-1.9.3-3 .4z"/></svg>