<svg version="1.1" id="Layer_1" xmlns="http://www.w3.org/2000/svg" x="0" y="0" viewBox="0 0 44 35" xml:space="preserve"><style>.st0{fill:#f0f300}</style><path class="st0" d="M0 34.3h44v.7H0z"/><circle class="st0" cx="19.3" cy="21.9" r="2.9"/><path class="st0" d="M24.5 17.4c-.7 0-1.4-.1-2-.3l8.9 3.5.8-.8-6.4-2.5c-.4 0-.9.1-1.3.1zm10 1.5l-2 2 5.6 5.6c.2.2.5.2.7.2.3-.1.7-.3 1-.5.5-.5.7-1.3.4-1.6l-5.7-5.7zm-.4-1.1l-3.5-8.9c.2.7.3 1.4.3 2.1 0 .4 0 .9-.1 1.3l2.5 6.4.8-.9zM26.3 16c.6-.2 1.2-.5 1.7-.9l-1.7-1.7-1.3 1.3 1.3 1.3zm1.9-4.6l-1.3 1.3 1.7 1.7c.4-.5.7-1.1.9-1.7l-1.3-1.3zm1.6.2c.1-.6 0-1.2-.1-1.8l-.9.9 1 .9zM21.3 7l1.3-1.3 1.2 1.2-1.3 1.3L21.3 7zm5 1.1L28 6.4l-1.1-1.3-1.8 1.8 1.2 1.2zm-3.2.8l1.3-1.3 1.2 1.2-1.3 1.3-1.2-1.2zm-.5-4.6l2-2-.6-.8-.5-.5-2 2 1.1 1.3zm-2 2l-1.2-1.2 1.3-1.3L21.9 5l-1.3 1.3zm-6.7 1.6c0 .4.1.7.2 1L16 7.1l-1.3-1.3c-.5.6-.8 1.3-.8 2.1zm2.8-4.1L18 5.1l-1.3 1.3-1.3-1.3 1.3-1.3zm4 11.3c.5.4 1 .6 1.6.8l1.2-1.2-1.2-1.2-1.6 1.6zm3.5-1.1L23 12.8l1.3-1.3 1.2 1.2-1.3 1.3zm-4.2.5l1.7-1.7-1.2-1.2-1.8 1.8 1.3 1.1zm-2.1-1.8l1.8-1.8-1.2-1.2-1.9 1.9 1.3 1.1zm-1.2-4.9l-2 2c.1.2.3.4.5.5l.8.6 2-2-1.3-1.1zm8.4 8.5l-.9-.9-.9.9h1.8zm3.1-6.3l1.2-1.2c-.2-.5-.5-1.1-.8-1.6L27 8.8l1.2 1.2zm-3.2.8l1.3-1.3 1.2 1.2-1.3 1.3-1.2-1.2zm-6.4-2.5l-1.2-1.2 1.3-1.3L19.9 7l-1.3 1.3zm5.9-2.1l1.8-1.8-1.1-1.3L23.3 5l1.2 1.2zm-.8 4.6l-1.3 1.3-1.2-1.2 1.3-1.3 1.2 1.2zm-3.1-3.1l1.2 1.2-1.3 1.3L19.3 9l1.3-1.3zm.1-5.3L22.6.5c-.3-.1-.7-.2-1-.2h-.1c-.8 0-1.4.3-2 .8l1.2 1.3zm-2-.6L20 3.1l-1.3 1.3-1.3-1.3 1.3-1.3zM3.7 0h.8v27h-.8z"/></svg>