<svg version="1.1" id="Layer_1" xmlns="http://www.w3.org/2000/svg" x="0" y="0" viewBox="0 0 44 35" xml:space="preserve"><style>.st0{fill:#f0f300}</style><path class="st0" d="M0 34.3h44v.7H0zm17.1-15.9c-2.3-2.3-5.4-3.8-8.6-4.1.4 6.9 5.9 12.4 12.8 12.8-.4-3.4-1.9-6.4-4.2-8.7z"/><path class="st0" d="M22.7 27c6.9-.4 12.4-5.9 12.8-12.8-3.5-.4-6.9-1.9-9.6-4.6S21.7 3.5 21.3 0C14.4.4 8.9 5.9 8.5 12.8c3.5.4 6.9 1.9 9.6 4.6s4.2 6.1 4.6 9.6z"/><path class="st0" d="M26.9 8.6c2.3 2.3 5.4 3.8 8.6 4.1C35.1 5.9 29.6.4 22.7 0c.4 3.3 1.9 6.3 4.2 8.6z"/></svg>